<?xml version="1.0" standalone="no"?>
<!DOCTYPE svg PUBLIC "-//W3C//DTD SVG 20010904//EN"
 "http://www.w3.org/TR/2001/REC-SVG-20010904/DTD/svg10.dtd">
<svg version="1.0" xmlns="http://www.w3.org/2000/svg"
 width="840.000000pt" height="637.000000pt" viewBox="0 0 840.000000 637.000000"
 preserveAspectRatio="xMidYMid meet">

<g transform="translate(0.000000,637.000000) scale(0.100000,-0.100000)"
fill="#000000" stroke="none">
<path d="M4640 5945 c-147 -27 -351 -113 -502 -212 -115 -75 -218 -201 -302
-370 -82 -165 -109 -280 -110 -478 0 -187 25 -303 104 -472 32 -68 44 -85 72
-96 30 -12 34 -12 40 4 6 15 68 34 94 28 5 -1 17 1 27 6 10 4 23 2 31 -5 12
-10 8 -21 -25 -73 -22 -34 -36 -63 -30 -65 5 -2 31 11 59 27 60 37 86 39 108
6 15 -23 20 -24 85 -19 84 6 86 -1 33 -82 -20 -30 -34 -57 -32 -59 2 -3 31 11
63 31 68 40 95 41 110 1 8 -25 6 -31 -15 -48 -24 -18 -24 -19 -4 -19 12 0 27
-7 34 -15 10 -12 15 -13 20 -4 4 6 27 12 51 14 24 2 52 6 62 10 9 4 24 2 32
-5 12 -10 8 -21 -27 -76 -22 -36 -38 -67 -36 -69 2 -3 29 11 59 30 62 40 92
44 112 15 13 -18 22 -20 90 -15 80 6 101 -3 74 -33 -19 -23 -70 -112 -63 -112
2 0 32 16 65 35 32 19 66 35 73 35 20 0 38 -21 38 -45 0 -12 -5 -26 -12 -33
-19 -19 27 -15 164 14 288 61 447 161 619 393 170 229 237 438 226 706 -8 181
-42 302 -128 465 -162 302 -475 524 -828 585 -104 19 -329 18 -431 0z"/>
<path d="M3949 4050 c-42 -31 -56 -37 -71 -29 -23 13 -77 3 -117 -22 -38 -23
-39 -33 -6 -64 l26 -23 -34 -54 c-181 -283 -334 -694 -377 -1012 l-12 -88
-402 -592 c-221 -325 -464 -683 -541 -796 -169 -250 -271 -400 -401 -590 -94
-137 -99 -148 -99 -197 0 -42 5 -58 31 -89 50 -63 77 -78 149 -82 48 -3 71 0
89 12 14 9 107 137 208 286 101 149 301 445 446 658 145 213 329 485 410 604
81 120 150 218 153 218 14 0 20 -190 9 -295 -23 -214 -92 -385 -227 -567 -141
-190 -190 -275 -241 -419 -33 -95 -52 -203 -45 -261 3 -21 16 -49 30 -64 46
-50 92 -26 273 142 160 147 236 208 311 246 l64 33 165 -1 c175 0 305 -15 720
-80 293 -47 465 -54 603 -26 244 51 412 191 492 412 39 108 73 152 140 185
112 55 242 38 451 -59 185 -85 260 -95 304 -39 56 72 -20 248 -182 418 -102
108 -178 159 -336 225 -228 95 -325 153 -434 258 -127 122 -184 239 -219 446
-23 138 -40 209 -76 316 -33 96 -130 301 -195 411 -49 83 -52 86 -85 84 -51
-3 -56 -14 -39 -81 8 -33 18 -88 21 -124 3 -36 8 -80 11 -97 4 -29 2 -33 -18
-33 -32 0 -68 27 -68 51 0 26 -27 78 -56 108 -16 16 -24 35 -24 60 0 20 -4 52
-9 71 -5 19 -12 47 -15 61 -3 14 -16 31 -30 37 -13 6 -27 20 -31 30 -7 24 -33
36 -49 22 -14 -11 -84 -2 -92 12 -3 5 9 31 26 59 18 27 30 52 27 55 -6 7 -83
-32 -92 -46 -16 -26 -43 -30 -69 -9 -29 23 -34 50 -11 69 25 21 -26 41 -90 36
-34 -3 -59 0 -71 9 -17 12 -17 15 9 54 15 22 27 48 27 56 0 14 -3 14 -29 0
-17 -8 -42 -26 -57 -40 -15 -14 -35 -25 -44 -25 -21 0 -50 31 -50 52 0 19 -24
30 -37 17 -12 -12 -84 1 -90 17 -2 7 7 30 21 51 49 72 32 81 -45 23z m9 -240
c4 0 49 -26 101 -58 78 -48 99 -65 120 -105 34 -63 79 -117 95 -117 11 0 13
10 9 40 -4 25 -2 40 5 40 13 0 146 -81 150 -92 2 -5 10 -8 17 -8 21 0 175 -93
169 -102 -3 -4 -14 -8 -25 -8 -20 0 -26 -15 -9 -25 6 -4 10 -14 8 -23 -1 -10
1 -23 5 -29 5 -8 -3 -19 -23 -32 -24 -14 -28 -20 -16 -24 19 -8 21 -40 4 -55
-7 -5 -24 -12 -37 -14 -14 -1 -26 -9 -27 -16 -1 -7 0 -8 3 -2 9 18 33 -10 33
-38 0 -14 3 -22 7 -19 3 4 21 -5 40 -19 19 -14 39 -22 46 -18 6 4 9 4 6 0 -3
-3 11 -25 31 -48 35 -37 37 -43 28 -74 -6 -22 -5 -47 1 -70 5 -19 8 -41 5 -48
-4 -10 2 -12 19 -9 41 8 41 -15 2 -78 -20 -33 -35 -62 -32 -65 2 -3 32 11 65
31 33 19 65 35 71 35 10 0 41 -39 41 -52 0 -4 -10 -16 -22 -27 l-21 -20 26
-10 c40 -16 38 -59 -4 -68 -28 -5 -29 -7 -15 -21 10 -10 30 -15 51 -14 21 2
35 -2 35 -9 0 -6 -16 -38 -36 -71 -20 -32 -34 -61 -32 -63 2 -2 30 11 61 30
66 40 74 41 99 18 23 -21 23 -32 -4 -60 l-21 -23 21 0 c12 0 26 -8 31 -18 13
-24 -12 -62 -41 -62 -17 0 -18 -3 -9 -14 7 -8 11 -29 9 -47 -2 -25 -11 -37
-37 -51 -18 -10 -41 -18 -50 -16 -9 1 -22 -1 -28 -5 -15 -9 -81 1 -89 14 -3 5
6 29 20 54 14 24 26 48 26 54 0 16 -78 -26 -92 -49 -20 -31 -48 -24 -116 28
-115 87 -163 181 -159 314 2 61 -2 81 -15 94 -15 15 -14 20 14 66 17 27 28 52
24 55 -8 8 -72 -26 -93 -49 -25 -28 -61 -22 -82 13 l-19 30 -30 -36 c-33 -41
-60 -116 -66 -184 -7 -84 -55 -69 -76 24 -9 42 -9 51 4 61 9 6 16 16 16 22 0
6 4 12 8 14 5 2 21 29 36 61 21 45 26 71 25 114 -2 41 1 57 13 64 19 11 83
108 75 115 -8 8 -68 -25 -99 -53 -38 -36 -75 -26 -84 22 -4 22 -2 41 6 50 10
12 10 15 -1 15 -8 0 -31 5 -51 10 l-37 11 35 55 c20 31 33 58 31 61 -7 6 -66
-25 -101 -54 -25 -21 -31 -22 -49 -10 -35 23 -44 44 -29 68 12 18 12 23 0 30
-7 5 -21 9 -30 9 -29 0 -30 19 -4 65 44 75 33 84 -38 30 -26 -19 -54 -35 -63
-35 -37 0 -70 58 -43 75 16 10 12 23 -9 30 -11 3 -22 12 -24 20 -9 23 16 75
39 81 17 4 20 13 20 47 -1 41 0 42 31 41 22 -1 33 3 36 16 3 11 18 19 45 23
36 6 52 21 52 48 0 13 -71 -25 -94 -50 -23 -25 -43 -27 -68 -4 -20 18 -24 58
-7 69 7 4 1 15 -16 28 -25 20 -27 26 -18 52 5 16 22 35 36 42 23 11 26 16 16
33 -6 11 -8 27 -5 35 4 11 24 3 87 -36 44 -27 84 -50 87 -50z m246 -876 c3 -8
2 -12 -4 -9 -6 3 -10 10 -10 16 0 14 7 11 14 -7z m-244 -346 c0 -10 5 -18 11
-18 5 0 8 -4 5 -9 -3 -4 0 -21 6 -37 9 -26 7 -35 -21 -79 -39 -61 -61 -133
-61 -196 0 -41 -4 -51 -32 -74 -30 -25 -33 -26 -44 -10 -22 30 -37 126 -32
207 6 92 48 188 105 238 34 31 37 31 50 14 7 -10 13 -26 13 -36z m130 -38 c0
-4 -9 -10 -20 -13 -22 -6 -23 -5 -14 17 6 14 34 12 34 -4z"/>
<path d="M4100 3639 c0 -11 5 -17 10 -14 6 3 10 13 10 21 0 8 -4 14 -10 14 -5
0 -10 -9 -10 -21z"/>
<path d="M3966 3563 c-20 -31 -34 -58 -32 -61 2 -2 36 13 75 34 69 36 87 54
56 54 -9 0 -18 7 -21 15 -12 31 -43 15 -78 -42z"/>
<path d="M4111 3514 c0 -11 3 -14 6 -6 3 7 2 16 -1 19 -3 4 -6 -2 -5 -13z"/>
<path d="M4203 3473 c-7 -2 -13 -9 -13 -13 0 -5 -18 -35 -40 -66 -22 -32 -40
-61 -40 -66 0 -19 101 47 106 70 4 12 11 22 18 22 6 0 4 5 -6 10 -10 6 -14 18
-11 30 6 21 5 21 -14 13z"/>
<path d="M4417 3373 c-20 -32 -34 -59 -32 -61 8 -8 86 41 101 63 19 29 12 55
-15 55 -13 0 -31 -19 -54 -57z"/>
<path d="M4290 3345 c0 -15 4 -24 10 -20 6 3 10 12 10 20 0 8 -4 17 -10 20 -6
4 -10 -5 -10 -20z"/>
<path d="M4560 3325 c0 -15 4 -24 10 -20 6 3 10 12 10 20 0 8 -4 17 -10 20 -6
4 -10 -5 -10 -20z"/>
<path d="M4378 3263 c-19 -22 -68 -100 -68 -108 0 -4 22 6 49 20 54 30 79 68
60 91 -15 18 -23 18 -41 -3z"/>
<path d="M4557 2998 c-31 -42 -50 -78 -44 -85 8 -8 85 45 97 66 12 23 3 51
-16 51 -7 0 -24 -15 -37 -32z"/>
<path d="M4626 2550 c-35 -22 -46 -38 -46 -67 0 -41 37 -28 70 24 17 26 30 51
30 55 0 13 -23 8 -54 -12z"/>
<path d="M4796 3655 c-44 -26 -56 -41 -56 -72 0 -17 6 -23 23 -23 15 0 28 9
35 23 6 12 20 36 32 54 27 40 15 46 -34 18z"/>
<path d="M5006 3633 c-4 -9 -2 -21 4 -27 7 -7 10 -2 10 17 0 31 -5 34 -14 10z"/>
</g>
</svg>
