<svg xmlns="http://www.w3.org/2000/svg" width="577" height="433" viewBox="0 0 577 433" version="1.1"><path d="M 285.750 86.740 C 289.188 86.936, 294.813 86.936, 298.250 86.740 C 301.688 86.545, 298.875 86.385, 292 86.385 C 285.125 86.385, 282.313 86.545, 285.750 86.740 M 308.250 87.689 C 309.212 87.941, 310.788 87.941, 311.750 87.689 C 312.712 87.438, 311.925 87.232, 310 87.232 C 308.075 87.232, 307.288 87.438, 308.250 87.689 M 284.500 91 C 285.245 92.205, 293.696 92.205, 296.500 91 C 297.871 90.411, 296.203 90.118, 291.191 90.070 C 286.556 90.026, 284.108 90.366, 284.500 91 M 273.500 92 C 273.840 92.550, 275.441 93, 277.059 93 C 278.677 93, 280 92.550, 280 92 C 280 91.450, 278.398 91, 276.441 91 C 274.323 91, 273.132 91.405, 273.500 92 M 302 92 C 300.818 92.764, 301.030 92.958, 303 92.914 C 304.375 92.884, 306.400 92.473, 307.500 92 C 309.217 91.262, 309.076 91.133, 306.500 91.086 C 304.850 91.055, 302.825 91.467, 302 92 M 263.500 93.477 C 260.750 94.184, 258.893 94.816, 259.372 94.881 C 259.852 94.947, 259.627 95.753, 258.872 96.673 C 257.640 98.176, 257.755 98.279, 260 97.680 C 261.375 97.313, 265.339 96.509, 268.809 95.894 C 275.022 94.791, 275.077 94.753, 272.445 93.387 C 270.974 92.624, 269.485 92.043, 269.136 92.096 C 268.786 92.149, 266.250 92.770, 263.500 93.477 M 310.500 93 C 308.714 93.767, 308.788 93.867, 311.191 93.930 C 312.671 93.968, 314.160 93.550, 314.500 93 C 315.238 91.806, 313.278 91.806, 310.500 93 M 279.068 93.937 C 278.173 94.503, 280.050 94.634, 284.068 94.286 C 287.605 93.980, 290.688 93.565, 290.917 93.365 C 291.852 92.546, 280.391 93.100, 279.068 93.937 M 316 94 C 316 95.253, 317.061 95.253, 319 94 C 320.213 93.216, 320.069 93.028, 318.250 93.015 C 317.012 93.007, 316 93.450, 316 94 M 320.500 95 C 320.160 95.550, 320.557 96, 321.382 96 C 322.207 96, 323.160 95.550, 323.500 95 C 323.840 94.450, 323.443 94, 322.618 94 C 321.793 94, 320.840 94.450, 320.500 95 M 324.634 95.512 C 324.174 96.711, 324.618 96.902, 326.777 96.431 C 328.878 95.974, 329.157 96.082, 328 96.904 C 326.323 98.095, 327.003 98.320, 329.448 97.382 C 330.895 96.826, 330.878 96.626, 329.279 95.414 C 326.925 93.627, 325.344 93.661, 324.634 95.512 M 247.500 98.579 C 244.200 99.972, 240.460 101.535, 239.190 102.054 C 237.919 102.572, 237.109 103.368, 237.390 103.822 C 237.671 104.276, 236.910 104.615, 235.700 104.574 C 234.376 104.530, 233.609 105.028, 233.775 105.824 C 233.926 106.553, 233.629 106.889, 233.115 106.571 C 231.557 105.608, 228.848 107.160, 229.431 108.681 C 229.731 109.464, 229.560 109.846, 229.050 109.531 C 228.540 109.216, 227.717 109.683, 227.222 110.569 C 226.726 111.454, 225.911 112.161, 225.410 112.138 C 223.778 112.065, 217.967 115.922, 217.371 117.475 C 217.052 118.307, 216.500 118.814, 216.145 118.602 C 215.790 118.389, 212.125 121.381, 208 125.251 C 203.875 129.121, 201.396 131.661, 202.490 130.894 C 206.244 128.265, 217.500 118.763, 218.793 117.131 C 219.504 116.234, 220.502 115.500, 221.011 115.500 C 221.519 115.500, 222.850 114.717, 223.968 113.760 C 225.085 112.803, 226 112.251, 226 112.533 C 226 113.894, 231.010 109.555, 231.079 108.135 C 231.122 107.236, 231.371 107.022, 231.632 107.660 C 231.948 108.433, 234.843 107.546, 240.303 105.003 C 244.812 102.904, 250.409 100.624, 252.743 99.937 C 256.119 98.943, 256.758 98.413, 255.870 97.344 C 254.438 95.618, 254.560 95.600, 247.500 98.579 M 288.500 97.128 C 290.150 97.630, 293.075 97.969, 295 97.881 C 296.925 97.793, 299.688 98.045, 301.140 98.441 C 302.591 98.837, 305.741 98.721, 308.140 98.184 L 312.500 97.206 307.500 97.174 C 304.750 97.156, 298.675 96.933, 294 96.678 C 287.955 96.348, 286.366 96.478, 288.500 97.128 M 232.750 99.572 C 228.873 101.675, 229.312 102.401, 233.250 100.399 C 237.020 98.481, 237.687 97.985, 236.417 98.040 C 235.912 98.062, 234.262 98.751, 232.750 99.572 M 277.250 99.689 C 278.212 99.941, 279.788 99.941, 280.750 99.689 C 281.712 99.438, 280.925 99.232, 279 99.232 C 277.075 99.232, 276.288 99.438, 277.250 99.689 M 316 100 C 314.667 100.862, 314.667 100.969, 316 100.969 C 316.825 100.969, 318.175 100.533, 319 100 C 320.333 99.138, 320.333 99.031, 319 99.031 C 318.175 99.031, 316.825 99.467, 316 100 M 336.565 99.895 C 335.870 101.019, 338.826 102.226, 340.197 101.378 C 340.835 100.984, 340.708 100.430, 339.857 99.890 C 338.109 98.783, 337.251 98.784, 336.565 99.895 M 321 100.765 C 321 101.963, 330.902 105.178, 332.173 104.393 C 332.870 103.962, 333.033 104.137, 332.595 104.845 C 332.203 105.480, 332.332 106, 332.882 106 C 334.258 106, 335.222 104.255, 334.196 103.621 C 333.184 102.996, 328.167 101.847, 325.750 101.687 C 324.788 101.623, 324 101.218, 324 100.786 C 324 100.354, 323.325 100, 322.500 100 C 321.675 100, 321 100.344, 321 100.765 M 343.507 102.989 C 343.144 103.576, 343.593 103.710, 344.612 103.319 C 345.776 102.872, 346.096 103.036, 345.605 103.830 C 344.898 104.974, 346.105 105.429, 348.850 105.052 C 349.593 104.950, 349.907 105.341, 349.548 105.922 C 349.138 106.585, 349.534 106.732, 350.612 106.319 C 351.741 105.885, 352.091 106.043, 351.636 106.780 C 351.250 107.404, 351.895 108.409, 353.093 109.050 C 354.582 109.846, 355.033 109.862, 354.562 109.100 C 353.446 107.294, 355.288 107.840, 359.518 110.568 C 362.637 112.579, 362.958 112.663, 361 110.955 C 358.832 109.064, 345.883 102, 344.584 102 C 344.328 102, 343.843 102.445, 343.507 102.989 M 353 102.449 C 353 102.724, 354.350 103.647, 356 104.500 C 357.650 105.353, 359 105.826, 359 105.551 C 359 105.276, 357.650 104.353, 356 103.500 C 354.350 102.647, 353 102.174, 353 102.449 M 336.166 105.876 C 335.103 106.550, 335.172 106.852, 336.506 107.364 C 337.427 107.717, 338.590 107.753, 339.090 107.444 C 339.591 107.135, 340 107.321, 340 107.858 C 340 109.041, 348.797 112.536, 349.643 111.690 C 350.581 110.752, 339.795 106.141, 338.145 106.775 C 337.193 107.140, 336.928 106.926, 337.395 106.170 C 338.247 104.792, 337.978 104.727, 336.166 105.876 M 240.750 110.068 C 238.688 111.157, 237 112.271, 237 112.544 C 237 112.990, 244.899 109.298, 245.917 108.377 C 247.067 107.336, 244.064 108.319, 240.750 110.068 M 197.971 124.296 C 190.171 131.707, 185.991 136.376, 188.024 135.407 C 189.465 134.720, 205.796 117.955, 204.935 118.046 C 204.696 118.072, 201.562 120.884, 197.971 124.296 M 361 118.261 C 361 118.575, 362.761 120.227, 364.914 121.932 C 367.066 123.637, 368.741 124.462, 368.636 123.766 C 368.301 121.560, 366.898 119.945, 365.868 120.582 C 365.321 120.919, 364.002 120.407, 362.937 119.443 C 361.872 118.479, 361 117.947, 361 118.261 M 381.949 124.500 C 391.011 134.400, 392.996 136.286, 388.262 130.500 C 386.012 127.750, 382.229 123.700, 379.856 121.500 C 377.309 119.138, 378.166 120.367, 381.949 124.500 M 215.484 127.164 C 211.860 130.554, 208.422 134.266, 207.844 135.414 C 207.266 136.561, 208.204 135.835, 209.928 133.800 C 211.653 131.765, 215.404 128.052, 218.265 125.550 C 221.125 123.047, 223.152 121, 222.769 121 C 222.386 121, 219.108 123.774, 215.484 127.164 M 377.958 125.250 C 382.102 129.665, 383 130.459, 383 129.708 C 383 129.548, 380.863 127.410, 378.250 124.958 L 373.500 120.500 377.958 125.250 M 376.579 132.067 C 383.909 139.824, 391.346 149.791, 394.624 156.250 C 395.949 158.863, 397.462 161, 397.985 161 C 398.509 161, 398.678 160.325, 398.362 159.500 C 397.386 156.957, 398.851 157.843, 400.428 160.750 C 401.249 162.262, 401.938 163.038, 401.960 162.473 C 402.031 160.639, 398.893 156.948, 397.824 157.608 C 397.154 158.023, 397.024 157.409, 397.458 155.875 C 397.894 154.335, 397.813 153.956, 397.227 154.797 C 396.502 155.839, 396.070 155.790, 395.039 154.547 C 393.859 153.125, 394.287 152.560, 396.293 152.896 C 396.729 152.969, 396.594 152.110, 395.993 150.986 C 395.392 149.863, 394.512 149.184, 394.038 149.476 C 393.564 149.769, 391.456 147.644, 389.353 144.754 C 384.406 137.955, 377.366 130.380, 373.531 127.729 C 371.697 126.462, 372.900 128.174, 376.579 132.067 M 384 130.646 C 384 131.185, 385.462 132.948, 387.250 134.563 L 390.500 137.500 387.500 134.005 C 385.850 132.083, 384.387 130.320, 384.250 130.088 C 384.113 129.856, 384 130.107, 384 130.646 M 383 134.500 C 384.866 136.425, 386.617 138, 386.892 138 C 387.167 138, 385.866 136.425, 384 134.500 C 382.134 132.575, 380.383 131, 380.108 131 C 379.833 131, 381.134 132.575, 383 134.500 M 196.791 136.750 C 193.425 140.334, 186 151.048, 186 152.323 C 186 152.868, 188.313 149.981, 191.139 145.907 C 193.966 141.833, 197.194 137.488, 198.314 136.250 C 201.236 133.019, 199.876 133.466, 196.791 136.750 M 389 142 C 390.175 143.650, 391.361 145, 391.636 145 C 391.911 145, 391.175 143.650, 390 142 C 388.825 140.350, 387.639 139, 387.364 139 C 387.089 139, 387.825 140.350, 389 142 M 401.692 151.518 C 403.585 155.083, 405.335 158, 405.581 158 C 406.272 158, 400.164 146.219, 399.147 145.591 C 398.654 145.286, 399.799 147.953, 401.692 151.518 M 177.535 149.587 C 176.603 151.009, 176.012 152.346, 176.223 152.556 C 176.433 152.766, 177.394 151.602, 178.359 149.969 C 180.514 146.321, 179.871 146.022, 177.535 149.587 M 173.452 157.093 C 172.572 158.794, 172.030 160.363, 172.247 160.580 C 172.464 160.797, 173.390 159.406, 174.305 157.487 C 176.361 153.175, 175.649 152.845, 173.452 157.093 M 406.744 165.615 C 408.810 170.078, 410.795 173.565, 411.156 173.364 C 412.063 172.858, 410.965 169, 409.915 169 C 409.446 169, 409.350 168.251, 409.701 167.336 C 410.155 166.153, 409.971 165.900, 409.063 166.461 C 408.146 167.028, 407.945 166.722, 408.349 165.375 C 408.659 164.344, 408.273 162.375, 407.492 161 C 406.710 159.625, 406.055 159.149, 406.035 159.941 C 406.010 160.987, 405.587 160.850, 404.494 159.441 C 403.665 158.374, 404.677 161.152, 406.744 165.615 M 233.762 164.707 C 235.006 164.946, 236.806 164.937, 237.762 164.687 C 238.718 164.437, 237.700 164.241, 235.500 164.252 C 233.300 164.263, 232.518 164.468, 233.762 164.707 M 226.252 179.500 C 226.263 181.700, 226.468 182.482, 226.707 181.238 C 226.946 179.994, 226.937 178.194, 226.687 177.238 C 226.437 176.282, 226.241 177.300, 226.252 179.500 M 412 179.559 C 412 180.416, 412.402 180.869, 412.894 180.566 C 413.385 180.262, 413.810 181.023, 413.837 182.257 C 413.920 185.990, 415.172 190.988, 416.179 191.611 C 416.759 191.969, 416.853 190.702, 416.420 188.348 C 416.032 186.232, 415.325 184.349, 414.850 184.165 C 414.376 183.980, 414.244 183.414, 414.558 182.906 C 415.322 181.669, 414.106 178, 412.933 178 C 412.420 178, 412 178.702, 412 179.559 M 211.252 183.500 C 211.263 185.700, 211.468 186.482, 211.707 185.238 C 211.946 183.994, 211.937 182.194, 211.687 181.238 C 211.437 180.282, 211.241 181.300, 211.252 183.500 M 407.710 183 C 407.038 185.570, 407.961 189.142, 409.114 188.430 C 409.601 188.128, 410 187.207, 410 186.382 C 410 185.557, 409.532 185.171, 408.960 185.525 C 408.285 185.942, 408.148 185.259, 408.568 183.584 C 408.925 182.163, 408.996 181, 408.725 181 C 408.455 181, 407.998 181.900, 407.710 183 M 343.776 186.733 C 346.128 186.945, 349.728 186.942, 351.776 186.727 C 353.824 186.512, 351.900 186.339, 347.500 186.343 C 343.100 186.346, 341.424 186.522, 343.776 186.733 M 409.531 190.293 C 409.103 191.279, 409.034 192.367, 409.376 192.710 C 410.392 193.725, 411.211 192.299, 410.743 190.328 C 410.329 188.581, 410.275 188.580, 409.531 190.293 M 261.015 191.750 C 261.027 193.094, 261.227 193.190, 261.878 192.163 C 262.492 191.194, 264.696 190.918, 269.865 191.163 C 273.792 191.348, 277.003 191.162, 277.002 190.750 C 277.001 190.338, 273.400 190, 269 190 C 262.042 190, 261.002 190.228, 261.015 191.750 M 310.250 190.716 C 311.762 190.945, 314.238 190.945, 315.750 190.716 C 317.262 190.487, 316.025 190.300, 313 190.300 C 309.975 190.300, 308.738 190.487, 310.250 190.716 M 301.155 195.101 C 299.315 196.774, 297.995 198.329, 298.223 198.556 C 298.450 198.784, 300.157 197.402, 302.015 195.485 C 306.165 191.202, 305.680 190.985, 301.155 195.101 M 216.751 196.500 C 217.892 198.150, 220.540 201.075, 222.634 203 C 225.676 205.796, 225.459 205.394, 221.555 201 C 214.990 193.610, 214.316 192.978, 216.751 196.500 M 239.500 198 C 241.648 200.200, 243.631 202, 243.906 202 C 244.181 202, 242.648 200.200, 240.500 198 C 238.352 195.800, 236.369 194, 236.094 194 C 235.819 194, 237.352 195.800, 239.500 198 M 410 198.059 C 410 199.844, 410.417 200.861, 411 200.500 C 411.550 200.160, 412 198.784, 412 197.441 C 412 196.098, 411.550 195, 411 195 C 410.450 195, 410 196.377, 410 198.059 M 324.272 202 C 324.272 204.475, 324.467 205.488, 324.706 204.250 C 324.944 203.012, 324.944 200.988, 324.706 199.750 C 324.467 198.512, 324.272 199.525, 324.272 202 M 308.984 205.797 L 309.468 211.500 309.795 206.610 C 309.974 203.921, 309.756 201.355, 309.310 200.907 C 308.865 200.460, 308.718 202.660, 308.984 205.797 M 363.336 208 C 363.336 212.125, 363.513 213.813, 363.728 211.750 C 363.944 209.688, 363.944 206.313, 363.728 204.250 C 363.513 202.188, 363.336 203.875, 363.336 208 M 160.252 205.500 C 160.263 207.700, 160.468 208.482, 160.707 207.238 C 160.946 205.994, 160.937 204.194, 160.687 203.238 C 160.437 202.282, 160.241 203.300, 160.252 205.500 M 175.252 206.500 C 175.263 208.700, 175.468 209.482, 175.707 208.238 C 175.946 206.994, 175.937 205.194, 175.687 204.238 C 175.437 203.282, 175.241 204.300, 175.252 206.500 M 411.015 209.750 C 411.026 214.477, 411.321 216.050, 412 215 C 413.281 213.017, 413.281 203, 412 203 C 411.431 203, 411.007 205.906, 411.015 209.750 M 249.300 219 C 249.300 222.025, 249.487 223.262, 249.716 221.750 C 249.945 220.238, 249.945 217.762, 249.716 216.250 C 249.487 214.738, 249.300 215.975, 249.300 219 M 413.206 220.500 C 413.189 222.700, 413.526 226.750, 413.954 229.500 L 414.733 234.500 414.748 228.500 C 414.756 225.200, 414.420 221.150, 414 219.500 C 413.272 216.641, 413.235 216.688, 413.206 220.500 M 232.286 222.500 C 232.294 225.250, 232.488 226.256, 232.718 224.736 C 232.947 223.216, 232.941 220.966, 232.704 219.736 C 232.467 218.506, 232.279 219.750, 232.286 222.500 M 175.232 226 C 175.232 227.925, 175.438 228.713, 175.689 227.750 C 175.941 226.787, 175.941 225.213, 175.689 224.250 C 175.438 223.287, 175.232 224.075, 175.232 226 M 198.272 227 C 198.272 229.475, 198.467 230.488, 198.706 229.250 C 198.944 228.012, 198.944 225.988, 198.706 224.750 C 198.467 223.512, 198.272 224.525, 198.272 227 M 305.310 230.500 C 305.315 233.800, 305.502 235.029, 305.725 233.232 C 305.947 231.435, 305.943 228.735, 305.715 227.232 C 305.486 225.729, 305.304 227.200, 305.310 230.500 M 373.518 227.945 C 373.152 229.097, 371.243 232.169, 369.275 234.770 C 367.256 237.440, 366.680 238.629, 367.952 237.501 C 370.614 235.142, 375.476 227.143, 374.713 226.379 C 374.421 226.088, 373.883 226.792, 373.518 227.945 M 161.118 231.583 C 161.183 234.287, 161.587 237.850, 162.015 239.500 C 162.471 241.258, 162.571 239.394, 162.258 235 C 161.644 226.397, 160.943 224.296, 161.118 231.583 M 328.457 230.070 C 328.093 230.659, 326.829 231.530, 325.648 232.007 C 324.182 232.598, 324.007 232.893, 325.095 232.937 C 325.972 232.971, 327.505 232.100, 328.500 231 C 329.495 229.900, 330.042 229, 329.714 229 C 329.386 229, 328.820 229.482, 328.457 230.070 M 243.066 235.268 C 240.218 238.778, 240.106 239.073, 242.408 237 C 244.800 234.845, 247.640 230.964, 246.785 231.018 C 246.628 231.028, 244.955 232.940, 243.066 235.268 M 345.872 232.250 C 346.720 233.330, 348.442 233.943, 350.372 233.850 L 353.500 233.700 350.500 233.262 C 348.850 233.020, 346.825 232.300, 346 231.662 C 344.695 230.651, 344.678 230.727, 345.872 232.250 M 412.215 234 C 412.206 235.925, 412.560 238.625, 413 240 C 413.648 242.022, 413.809 242.118, 413.843 240.500 C 413.866 239.400, 413.512 236.700, 413.057 234.500 L 412.230 230.500 412.215 234 M 326 240.089 C 324.339 241.448, 324.172 241.787, 325.500 241.101 C 328.762 239.415, 330.570 238.030, 329.500 238.038 C 328.950 238.041, 327.375 238.965, 326 240.089 M 291 240.333 C 291 241.728, 289.872 242, 284.083 242 C 279.486 242, 276.998 241.581, 276.662 240.750 C 276.361 240.003, 276.126 240.205, 276.079 241.250 C 276.010 242.769, 276.995 243, 283.531 243 C 289.397 243, 291.194 242.659, 291.655 241.457 C 291.981 240.608, 291.966 239.633, 291.624 239.290 C 291.281 238.947, 291 239.417, 291 240.333 M 343.015 241.750 C 343.026 242.935, 343.276 243.113, 343.792 242.303 C 344.294 241.513, 345.055 241.423, 346.026 242.037 C 346.837 242.550, 348.175 242.959, 349 242.946 C 349.825 242.932, 348.986 242.264, 347.135 241.461 C 342.942 239.640, 342.997 239.636, 343.015 241.750 M 411.199 241.500 C 411.199 242.600, 411.560 244.625, 412 246 C 412.634 247.980, 412.801 248.084, 412.801 246.500 C 412.801 245.400, 412.440 243.375, 412 242 C 411.366 240.020, 411.199 239.916, 411.199 241.500 M 254.776 242.733 C 257.128 242.945, 260.728 242.942, 262.776 242.727 C 264.824 242.512, 262.900 242.339, 258.500 242.343 C 254.100 242.346, 252.424 242.522, 254.776 242.733 M 217.750 244.723 C 219.537 244.945, 222.463 244.945, 224.250 244.723 C 226.037 244.502, 224.575 244.320, 221 244.320 C 217.425 244.320, 215.963 244.502, 217.750 244.723 M 406.111 261.111 C 405.495 262.878, 405.166 264.499, 405.380 264.713 C 405.594 264.927, 406.273 263.656, 406.889 261.889 C 407.505 260.122, 407.834 258.501, 407.620 258.287 C 407.406 258.073, 406.727 259.344, 406.111 261.111 M 168.071 260.500 C 168.071 261.050, 168.714 262.625, 169.500 264 C 170.286 265.375, 170.929 266.050, 170.929 265.500 C 170.929 264.950, 170.286 263.375, 169.500 262 C 168.714 260.625, 168.071 259.950, 168.071 260.500 M 189.500 274 C 190.353 275.650, 191.276 277, 191.551 277 C 191.826 277, 191.353 275.650, 190.500 274 C 189.647 272.350, 188.724 271, 188.449 271 C 188.174 271, 188.647 272.350, 189.500 274 M 396.500 281 C 395.647 282.650, 395.174 284, 395.449 284 C 395.724 284, 396.647 282.650, 397.500 281 C 398.353 279.350, 398.826 278, 398.551 278 C 398.276 278, 397.353 279.350, 396.500 281 M 180.097 284.440 C 181.252 286.398, 182.390 288, 182.624 288 C 183.335 288, 180.089 282.173, 179.005 281.503 C 178.451 281.160, 178.942 282.482, 180.097 284.440 M 399.736 284.256 L 397.971 287.500 399.986 285.139 C 401.700 283.130, 402.616 280.984, 401.750 281.006 C 401.613 281.010, 400.706 282.472, 399.736 284.256 M 185 292 C 186.175 293.650, 187.361 295, 187.636 295 C 187.911 295, 187.175 293.650, 186 292 C 184.825 290.350, 183.639 289, 183.364 289 C 183.089 289, 183.825 290.350, 185 292 M 207.500 298 C 210.209 300.750, 212.650 303, 212.925 303 C 213.200 303, 211.209 300.750, 208.500 298 C 205.791 295.250, 203.350 293, 203.075 293 C 202.800 293, 204.791 295.250, 207.500 298 M 384.048 298.451 C 382.208 300.348, 380.381 301.811, 379.987 301.701 C 378.865 301.387, 368.152 311.819, 368.865 312.531 C 369.214 312.881, 369.050 313.020, 368.500 312.841 C 366.911 312.324, 362.684 315.687, 363.944 316.466 C 364.544 316.836, 366.715 315.792, 368.768 314.144 C 372.955 310.782, 388.746 295, 387.923 295 C 387.631 295, 385.887 296.553, 384.048 298.451 M 188 296.313 C 188 296.485, 189.463 297.948, 191.250 299.563 L 194.500 302.500 191.563 299.250 C 188.825 296.221, 188 295.540, 188 296.313 M 200.500 310 C 204.320 313.850, 207.671 317, 207.946 317 C 208.221 317, 205.320 313.850, 201.500 310 C 197.680 306.150, 194.329 303, 194.054 303 C 193.779 303, 196.680 306.150, 200.500 310 M 382.946 306.750 L 379.500 310.500 383.250 307.054 C 385.313 305.158, 387 303.471, 387 303.304 C 387 302.540, 386.154 303.260, 382.946 306.750 M 365 309.121 C 357.508 315.452, 356.107 316.510, 354.826 316.805 C 354.097 316.973, 352.938 317.846, 352.250 318.746 C 351.563 319.646, 351 319.985, 351 319.500 C 351 319.015, 350.292 319.491, 349.426 320.559 C 348.560 321.626, 348.143 321.927, 348.499 321.228 C 348.882 320.473, 347.293 320.855, 344.595 322.166 C 342.092 323.382, 340.220 324.554, 340.436 324.770 C 340.652 324.985, 341.731 324.679, 342.834 324.089 C 344.321 323.293, 344.944 323.331, 345.246 324.238 C 345.776 325.829, 360.185 317.098, 367.121 310.983 C 371.045 307.523, 371.820 306.412, 370.384 306.304 C 369.348 306.226, 366.925 307.494, 365 309.121 M 221 309.313 C 221 309.560, 222.652 311.023, 224.671 312.563 C 226.690 314.103, 228.027 314.852, 227.641 314.228 C 226.850 312.948, 221 308.619, 221 309.313 M 372.946 316.750 L 369.500 320.500 373.250 317.054 C 376.740 313.846, 377.460 313, 376.696 313 C 376.529 313, 374.842 314.688, 372.946 316.750 M 229.761 316.212 C 230.940 317.632, 239 322.432, 239 321.713 C 239 321.485, 236.668 319.849, 233.818 318.078 C 230.968 316.306, 229.142 315.466, 229.761 316.212 M 359.251 318.114 C 357.464 319.259, 356.301 320.678, 356.665 321.267 C 357.075 321.930, 356.730 322.110, 355.761 321.739 C 353.588 320.905, 350.206 323.391, 352.003 324.502 C 352.840 325.019, 353.066 324.917, 352.633 324.215 C 352.233 323.568, 352.681 323.173, 353.728 323.249 C 355.983 323.411, 364.147 318.047, 363.425 316.878 C 362.740 315.770, 363.058 315.676, 359.251 318.114 M 360.718 325.420 C 354.816 329.506, 353.411 330.938, 357.765 328.431 C 361.124 326.497, 366.891 322.057, 366 322.091 C 365.725 322.102, 363.348 323.600, 360.718 325.420 M 341.821 326.250 C 341.095 326.938, 339.600 327.657, 338.500 327.850 C 337.400 328.042, 336.225 328.643, 335.888 329.185 C 335.552 329.727, 334.989 330.132, 334.638 330.085 C 332.332 329.777, 331 330.151, 331 331.107 C 331 331.716, 331.661 331.960, 332.468 331.651 C 333.275 331.341, 334.161 331.451, 334.436 331.896 C 334.961 332.747, 320.678 337.419, 313 338.908 C 309.408 339.605, 309.105 339.802, 311.500 339.885 C 316.968 340.074, 337.445 333.529, 336.445 331.911 C 336.143 331.423, 336.594 331.291, 337.448 331.618 C 338.302 331.946, 339 331.730, 339 331.138 C 339 330.546, 339.748 330.350, 340.664 330.701 C 341.872 331.165, 342.104 330.977, 341.510 330.015 C 340.974 329.150, 341.078 328.930, 341.809 329.382 C 342.424 329.762, 343.809 329.191, 344.886 328.114 C 346.541 326.459, 346.611 326.065, 345.341 325.577 C 343.343 324.811, 343.343 324.811, 341.821 326.250 M 333 327 C 330.940 327.660, 330.852 327.816, 332.500 327.885 C 333.600 327.931, 335.175 327.533, 336 327 C 337.752 325.868, 336.536 325.868, 333 327 M 226 329.459 C 226 329.734, 227.800 330.878, 230 332 C 232.200 333.122, 234 333.816, 234 333.541 C 234 333.266, 232.200 332.122, 230 331 C 227.800 329.878, 226 329.184, 226 329.459 M 326.010 331.892 C 324.626 332.278, 323.994 332.878, 324.587 333.244 C 325.937 334.079, 330 333.058, 330 331.883 C 330 330.897, 329.583 330.898, 326.010 331.892 M 273.750 333.706 C 274.988 333.944, 277.012 333.944, 278.250 333.706 C 279.488 333.467, 278.475 333.272, 276 333.272 C 273.525 333.272, 272.512 333.467, 273.750 333.706 M 238 336 C 239.925 337.054, 241.950 337.916, 242.500 337.916 C 243.050 337.916, 241.925 337.054, 240 336 C 238.075 334.946, 236.050 334.084, 235.500 334.084 C 234.950 334.084, 236.075 334.946, 238 336 M 300.762 334.707 C 302.006 334.946, 303.806 334.937, 304.762 334.687 C 305.718 334.437, 304.700 334.241, 302.500 334.252 C 300.300 334.263, 299.518 334.468, 300.762 334.707 M 317 335 C 317 335.550, 317.675 336, 318.500 336 C 319.325 336, 320 335.550, 320 335 C 320 334.450, 319.325 334, 318.500 334 C 317.675 334, 317 334.450, 317 335 M 311.500 336 C 310.400 336.473, 307.475 336.923, 305 337 C 302.525 337.077, 299.600 337.566, 298.500 338.086 C 297.132 338.732, 298.643 338.858, 303.279 338.485 C 312.294 337.758, 316.084 336.945, 315.425 335.878 C 314.781 334.837, 314.162 334.856, 311.500 336 M 284.250 338.716 C 285.762 338.945, 288.238 338.945, 289.750 338.716 C 291.262 338.487, 290.025 338.300, 287 338.300 C 283.975 338.300, 282.738 338.487, 284.250 338.716 M 284.789 346.741 C 288.248 346.937, 293.648 346.936, 296.789 346.738 C 299.930 346.540, 297.100 346.380, 290.500 346.382 C 283.900 346.384, 281.330 346.546, 284.789 346.741" stroke="none" fill="#7ce17e" fill-rule="evenodd"/><path d="M 268.500 88.555 C 241.640 93.572, 218.294 105.910, 197.694 125.975 C 179.598 143.600, 168.727 163.533, 163.467 188.733 C 161.825 196.594, 159.680 220.674, 160.503 222.004 C 160.749 222.402, 161.428 226.951, 162.013 232.114 C 163.243 242.983, 165.132 250.860, 168.697 260 C 171.584 267.401, 177.267 278.990, 179.916 282.878 C 180.898 284.320, 183.457 288.177, 185.601 291.448 C 191.022 299.718, 210.086 318.708, 218.500 324.220 C 228.363 330.680, 242.067 337.333, 251.829 340.400 C 275.405 347.808, 304.449 347.976, 328.497 340.844 C 344.949 335.964, 366.212 323.500, 377.919 311.875 C 384.305 305.532, 398.509 287.315, 400.042 283.500 C 405.729 269.348, 407.249 265.170, 409.346 257.934 C 410.694 253.284, 412.068 246.784, 412.401 243.490 C 412.915 238.394, 412.703 238.884, 410.983 246.779 C 409.871 251.882, 407.827 259.082, 406.440 262.779 C 403.344 271.035, 395.167 285.615, 389.482 293.014 C 383.377 300.961, 366.070 317.241, 364.405 316.602 C 363.646 316.310, 363.131 316.618, 363.262 317.286 C 363.393 317.954, 362.744 318.506, 361.821 318.513 C 360.897 318.520, 359.772 318.929, 359.321 319.423 C 358.852 319.936, 359.036 320.012, 359.750 319.601 C 362.169 318.209, 360.967 319.792, 358.250 321.576 C 356.738 322.569, 354.703 323.323, 353.728 323.252 C 352.754 323.180, 352.215 323.539, 352.530 324.049 C 352.851 324.567, 352.346 324.686, 351.388 324.319 C 350.099 323.824, 349.877 324.013, 350.496 325.080 C 350.950 325.861, 350.966 326.180, 350.534 325.790 C 349.523 324.879, 344 327.705, 344 329.133 C 344 329.727, 343.302 329.946, 342.448 329.618 C 341.434 329.229, 341.144 329.425, 341.612 330.181 C 342.090 330.955, 341.775 331.128, 340.664 330.701 C 339.748 330.350, 339 330.546, 339 331.138 C 339 331.730, 338.302 331.946, 337.448 331.618 C 336.594 331.291, 336.143 331.423, 336.445 331.911 C 337.445 333.529, 316.968 340.074, 311.500 339.885 C 309.105 339.802, 309.408 339.605, 313 338.908 C 320.701 337.415, 334.961 332.745, 334.432 331.890 C 334.156 331.443, 332.708 331.545, 331.215 332.117 C 320.284 336.306, 310.032 338.166, 296 338.506 L 281.500 338.857 294.715 337.943 C 304.176 337.288, 311.134 336.145, 319.215 333.917 C 331.599 330.502, 345 325.314, 345 323.935 C 345 323.452, 342.413 324.122, 339.250 325.424 C 299.831 341.650, 257.285 336.920, 225 312.722 C 200.047 294.020, 185.968 273.584, 178.431 245.127 C 175.277 233.220, 174.111 212.507, 175.904 200.246 C 182.190 157.256, 213.171 119.128, 253.186 105.138 C 262.899 101.742, 276.009 99, 282.529 99 C 284.898 99, 287.661 98.683, 288.668 98.296 C 290.273 97.679, 290.190 97.512, 288 96.948 C 286.485 96.558, 288.061 96.287, 292 96.259 C 295.575 96.234, 300.750 96.836, 303.500 97.596 C 306.250 98.357, 311.650 99.175, 315.500 99.415 C 319.350 99.654, 323.850 100.375, 325.500 101.017 C 327.150 101.659, 329.593 102.391, 330.930 102.644 C 334.261 103.275, 335.152 103.946, 334.360 105.227 C 333.921 105.937, 334.436 106.119, 335.845 105.751 C 337.032 105.440, 337.751 105.595, 337.442 106.093 C 336.908 106.958, 338.428 107.445, 340.445 107.054 C 341.591 106.831, 344.693 108.328, 352.131 112.695 C 358.474 116.418, 359.869 116.796, 357.872 114.250 C 356.630 112.666, 356.665 112.630, 358.239 113.863 C 359.195 114.613, 359.776 115.554, 359.528 115.954 C 358.912 116.952, 364.831 121.223, 365.908 120.557 C 366.384 120.263, 367.387 120.805, 368.137 121.761 C 369.388 123.357, 369.335 123.386, 367.500 122.120 C 365.283 120.589, 369.180 124.185, 376.996 130.881 C 388.060 140.360, 397.891 156.150, 404.438 174.961 C 407.815 184.661, 410.145 189.769, 408.563 184 C 404.185 168.045, 397.844 154.292, 389.387 142.410 C 379.549 128.587, 362.471 113.688, 347.387 105.769 C 332.027 97.705, 309.056 92.064, 291.397 92.018 C 281.444 91.993, 271.084 93.152, 273.543 94.017 C 274.892 94.491, 273.326 95.080, 268.500 95.914 C 248.945 99.292, 228.910 109.028, 211.480 123.622 C 202.053 131.516, 201 132.331, 201 131.729 C 201 130.724, 219.573 114.999, 224.250 112.045 C 226.863 110.394, 229 108.536, 229 107.915 C 229 107.294, 229.698 107.054, 230.552 107.382 C 231.566 107.771, 231.856 107.575, 231.388 106.819 C 230.911 106.047, 231.223 105.872, 232.324 106.294 C 233.343 106.685, 233.885 106.463, 233.738 105.714 C 233.606 105.042, 234.481 104.533, 235.700 104.574 C 236.910 104.615, 237.687 104.303, 237.427 103.881 C 236.372 102.175, 255.263 95.130, 268.204 92.402 C 279.625 89.995, 302.333 90.028, 314.500 92.469 C 319.450 93.462, 324.379 94.234, 325.454 94.184 C 326.529 94.134, 327.915 94.515, 328.536 95.030 C 329.156 95.544, 333.677 97.583, 338.582 99.560 C 356.383 106.735, 367.147 113.909, 382.139 128.588 C 390.457 136.733, 395.924 144.154, 403.243 157.235 C 410.153 169.587, 410.752 169.283, 404.393 156.651 C 397.460 142.879, 391.476 134.455, 381.513 124.442 C 371.367 114.244, 363.207 108.143, 351.500 102.002 C 347.100 99.694, 343.001 97.397, 342.391 96.897 C 340.712 95.523, 330.521 92.150, 321 89.817 C 309.644 87.036, 280.401 86.333, 268.500 88.555 M 279.068 93.937 C 278.173 94.503, 280.050 94.634, 284.068 94.286 C 287.605 93.980, 290.688 93.565, 290.917 93.365 C 291.852 92.546, 280.391 93.100, 279.068 93.937 M 196.791 136.750 C 193.425 140.334, 186 151.048, 186 152.323 C 186 152.868, 188.313 149.981, 191.139 145.907 C 193.966 141.833, 197.194 137.488, 198.314 136.250 C 201.236 133.019, 199.876 133.466, 196.791 136.750 M 225.591 166.521 C 216.807 169.856, 212 175.681, 212 182.990 C 212 188.417, 214.514 193.056, 222.033 201.500 C 234.104 215.058, 236.302 226.181, 228.364 233.538 C 226.293 235.458, 224.628 236, 220.809 236 C 214.310 236, 211 232.956, 211 226.980 C 211 221.288, 212.259 219.448, 217.533 217.434 C 222.620 215.491, 223.110 213.410, 218.991 211.234 C 216.004 209.656, 208.984 210.309, 205.682 212.473 C 199.244 216.691, 197.059 228.044, 201.266 235.412 C 204.331 240.778, 209.693 243.380, 218.638 243.840 C 229.076 244.377, 236.002 242.098, 241.884 236.191 C 247.139 230.914, 249 226.112, 249 217.830 C 249 210.250, 245.394 203.456, 237.552 196.262 C 226.638 186.251, 224.082 180.609, 227.483 174.034 C 230.790 167.637, 242.010 168.217, 243.469 174.860 C 244.166 178.030, 241.662 185, 239.827 185 C 239.307 185, 239.160 185.450, 239.500 186 C 239.840 186.550, 241.666 187, 243.559 187 C 247.862 187, 250.658 184.339, 251.594 179.353 C 252.485 174.602, 249.783 169.150, 245.500 167.056 C 241.289 164.996, 230.379 164.703, 225.591 166.521 M 336.543 205.250 C 331.781 228.230, 329.595 233, 323.824 233 C 318.928 233, 318.486 230.089, 321.435 217.282 C 324.785 202.735, 324.780 198.081, 321.411 194.077 C 319.056 191.278, 318.287 191, 312.889 191 C 307.326 191, 306.676 191.258, 302.478 195.127 C 299.491 197.880, 298 198.731, 298 197.683 C 298 195.003, 293.700 191.113, 290.500 190.899 C 284.642 190.507, 282.235 191.030, 278.626 193.479 L 274.972 195.959 275.595 193.479 C 276.213 191.016, 276.171 191, 269.176 191 C 263.334 191, 262.047 191.298, 261.617 192.750 C 261.332 193.713, 259.037 204.400, 256.518 216.500 C 253.998 228.600, 251.696 239.287, 251.401 240.250 C 250.924 241.807, 251.680 242, 258.255 242 L 265.645 242 268.894 225.750 C 270.681 216.813, 273.015 207.661, 274.081 205.414 C 277.716 197.752, 284 197.226, 284 204.583 C 284 206.419, 282.677 213.902, 281.061 221.211 C 279.444 228.520, 277.819 236.188, 277.449 238.250 L 276.777 242 283.889 242 C 287.800 242, 291 241.801, 291 241.558 C 291 239.473, 298.301 208.216, 299.405 205.573 C 301.319 200.993, 305.149 198.474, 307.933 199.964 C 310.631 201.408, 310.649 206.139, 308 217.500 C 305.156 229.697, 305.311 236.038, 308.531 239.258 C 312.880 243.607, 320.417 243.862, 326.154 239.854 C 327.614 238.834, 329.010 238, 329.256 238 C 329.502 238, 328.241 244.637, 326.452 252.750 C 324.664 260.863, 323.271 267.578, 323.356 267.673 C 323.874 268.248, 336.698 264.661, 337.608 263.687 C 338.218 263.034, 339.765 257.550, 341.047 251.500 C 342.329 245.450, 343.438 240.392, 343.511 240.261 C 343.585 240.129, 345.530 240.762, 347.835 241.667 C 356.436 245.046, 366.863 240.179, 372.257 230.269 C 379.458 217.039, 379.711 197.860, 372.753 192.665 C 369.387 190.152, 361.808 190.014, 357.229 192.382 C 353.081 194.527, 353.091 194.532, 354 190.500 L 354.789 187 347.557 187 L 340.325 187 336.543 205.250 M 356.308 198.010 C 352.698 199.464, 351.321 202.809, 348.213 217.674 C 345.036 232.869, 345.164 234, 350.065 234 C 357.610 234, 363.961 221.800, 363.988 207.250 C 363.997 202.323, 363.577 200.577, 362 199 C 359.791 196.791, 359.472 196.735, 356.308 198.010 M 413.310 231.500 C 413.315 234.800, 413.502 236.029, 413.725 234.232 C 413.947 232.435, 413.943 229.735, 413.715 228.232 C 413.486 226.729, 413.304 228.200, 413.310 231.500" stroke="none" fill="#18cc18" fill-rule="evenodd"/></svg>