<svg xmlns="http://www.w3.org/2000/svg" width="1700" height="1700" viewBox="0 0 577 433" version="1.1"><path d="M 285.292 86.742 C 289.027 86.935, 294.877 86.934, 298.292 86.739 C 301.706 86.545, 298.650 86.387, 291.500 86.389 C 284.350 86.390, 281.556 86.550, 285.292 86.742 M 271.250 87.689 C 272.212 87.941, 273.788 87.941, 274.750 87.689 C 275.712 87.438, 274.925 87.232, 273 87.232 C 271.075 87.232, 270.288 87.438, 271.250 87.689 M 308.250 87.689 C 309.212 87.941, 310.788 87.941, 311.750 87.689 C 312.712 87.438, 311.925 87.232, 310 87.232 C 308.075 87.232, 307.288 87.438, 308.250 87.689 M 284 91 C 284 92.283, 295.015 92.283, 297 91 C 298.045 90.325, 296.300 90.026, 291.250 90.015 C 287.073 90.006, 284 90.424, 284 91 M 273.500 92 C 273.840 92.550, 275.441 93, 277.059 93 C 278.677 93, 280 92.550, 280 92 C 280 91.450, 278.398 91, 276.441 91 C 274.323 91, 273.132 91.405, 273.500 92 M 301.500 92 C 300.754 93.207, 304.692 93.207, 307.500 92 C 309.112 91.307, 308.784 91.127, 305.809 91.070 C 303.779 91.032, 301.840 91.450, 301.500 92 M 263.500 93.477 C 260.750 94.184, 258.893 94.816, 259.372 94.881 C 259.852 94.947, 259.627 95.753, 258.872 96.673 C 257.640 98.176, 257.755 98.279, 260 97.680 C 261.375 97.313, 265.339 96.509, 268.809 95.894 C 275.022 94.791, 275.077 94.753, 272.445 93.387 C 270.974 92.624, 269.485 92.043, 269.136 92.096 C 268.786 92.149, 266.250 92.770, 263.500 93.477 M 310 93 C 308.827 93.758, 309.086 93.973, 311.191 93.985 C 312.671 93.993, 314.160 93.550, 314.500 93 C 315.289 91.723, 311.976 91.723, 310 93 M 279.068 93.937 C 278.173 94.503, 280.050 94.634, 284.068 94.286 C 287.605 93.980, 290.688 93.565, 290.917 93.365 C 291.852 92.546, 280.391 93.100, 279.068 93.937 M 316 94 C 316 95.253, 317.061 95.253, 319 94 C 320.213 93.216, 320.069 93.028, 318.250 93.015 C 317.012 93.007, 316 93.450, 316 94 M 320.500 95 C 320.160 95.550, 320.557 96, 321.382 96 C 322.207 96, 323.160 95.550, 323.500 95 C 323.840 94.450, 323.443 94, 322.618 94 C 321.793 94, 320.840 94.450, 320.500 95 M 324.634 95.512 C 324.174 96.711, 324.618 96.902, 326.777 96.431 C 328.963 95.955, 329.204 96.064, 328 96.985 C 326.787 97.912, 326.955 98.002, 328.875 97.458 C 330.491 97.001, 331.032 97.140, 330.566 97.893 C 329.831 99.082, 331.232 99.435, 332.330 98.337 C 332.996 97.671, 327.708 94, 326.083 94 C 325.605 94, 324.953 94.681, 324.634 95.512 M 342.273 97 C 343.671 98.100, 345.143 99, 345.543 99 C 345.943 99, 345.126 98.100, 343.727 97 C 342.329 95.900, 340.857 95, 340.457 95 C 340.057 95, 340.874 95.900, 342.273 97 M 247.500 98.579 C 244.200 99.972, 240.460 101.535, 239.190 102.054 C 237.811 102.616, 237.168 103.462, 237.594 104.153 C 238.021 104.844, 237.872 105.039, 237.223 104.638 C 235.557 103.608, 228.848 107.162, 229.458 108.752 C 229.744 109.495, 229.560 109.846, 229.050 109.531 C 228.540 109.216, 227.717 109.683, 227.222 110.569 C 226.726 111.454, 226.018 112.130, 225.650 112.069 C 224.305 111.849, 219.087 115.038, 217.811 116.860 C 217.090 117.889, 216.244 118.679, 215.932 118.616 C 215.620 118.552, 212.245 121.356, 208.432 124.847 C 204.619 128.339, 202.175 130.835, 203 130.396 C 205.127 129.263, 217.244 119.086, 218.793 117.131 C 219.504 116.234, 220.502 115.500, 221.011 115.500 C 221.519 115.500, 222.850 114.717, 223.968 113.760 C 225.085 112.803, 226 112.251, 226 112.533 C 226 113.894, 231.010 109.555, 231.079 108.135 C 231.122 107.236, 231.371 107.022, 231.632 107.660 C 231.948 108.433, 234.843 107.546, 240.303 105.003 C 244.812 102.904, 250.409 100.624, 252.743 99.937 C 256.119 98.943, 256.758 98.413, 255.870 97.344 C 254.438 95.618, 254.560 95.600, 247.500 98.579 M 288.500 97.128 C 290.150 97.630, 293.075 97.969, 295 97.881 C 296.925 97.793, 299.688 98.045, 301.140 98.441 C 302.591 98.837, 305.741 98.721, 308.140 98.184 L 312.500 97.206 307.500 97.174 C 304.750 97.156, 298.675 96.933, 294 96.678 C 287.955 96.348, 286.366 96.478, 288.500 97.128 M 232.750 99.572 C 228.873 101.675, 229.312 102.401, 233.250 100.399 C 237.020 98.481, 237.687 97.985, 236.417 98.040 C 235.912 98.062, 234.262 98.751, 232.750 99.572 M 277.250 99.689 C 278.212 99.941, 279.788 99.941, 280.750 99.689 C 281.712 99.438, 280.925 99.232, 279 99.232 C 277.075 99.232, 276.288 99.438, 277.250 99.689 M 316 100 C 314.667 100.862, 314.667 100.969, 316 100.969 C 316.825 100.969, 318.175 100.533, 319 100 C 320.333 99.138, 320.333 99.031, 319 99.031 C 318.175 99.031, 316.825 99.467, 316 100 M 336.565 99.895 C 335.870 101.019, 338.826 102.226, 340.197 101.378 C 340.835 100.984, 340.708 100.430, 339.857 99.890 C 338.109 98.783, 337.251 98.784, 336.565 99.895 M 321 100.765 C 321 101.963, 330.902 105.178, 332.173 104.393 C 332.870 103.962, 333.033 104.137, 332.595 104.845 C 332.203 105.480, 332.332 106, 332.882 106 C 334.258 106, 335.222 104.255, 334.196 103.621 C 333.184 102.996, 328.167 101.847, 325.750 101.687 C 324.788 101.623, 324 101.218, 324 100.786 C 324 100.354, 323.325 100, 322.500 100 C 321.675 100, 321 100.344, 321 100.765 M 343.507 102.989 C 343.144 103.576, 343.593 103.710, 344.612 103.319 C 345.776 102.872, 346.096 103.036, 345.605 103.830 C 344.898 104.974, 346.105 105.429, 348.850 105.052 C 349.593 104.950, 349.907 105.341, 349.548 105.922 C 349.138 106.585, 349.534 106.732, 350.612 106.319 C 351.741 105.885, 352.091 106.043, 351.636 106.780 C 351.250 107.404, 351.895 108.409, 353.093 109.050 C 354.582 109.846, 355.033 109.862, 354.562 109.100 C 353.446 107.294, 355.288 107.840, 359.518 110.568 C 362.637 112.579, 362.958 112.663, 361 110.955 C 358.832 109.064, 345.883 102, 344.584 102 C 344.328 102, 343.843 102.445, 343.507 102.989 M 353 102.449 C 353 102.724, 354.350 103.647, 356 104.500 C 357.650 105.353, 359 105.826, 359 105.551 C 359 105.276, 357.650 104.353, 356 103.500 C 354.350 102.647, 353 102.174, 353 102.449 M 336.166 105.876 C 335.103 106.550, 335.172 106.852, 336.506 107.364 C 337.427 107.717, 338.590 107.753, 339.090 107.444 C 339.591 107.135, 340 107.321, 340 107.858 C 340 108.942, 348.762 112.571, 349.529 111.805 C 350.314 111.019, 340.986 106.575, 338.884 106.734 C 337.824 106.814, 337.218 106.456, 337.537 105.939 C 338.248 104.789, 337.906 104.773, 336.166 105.876 M 240.750 110.068 C 238.688 111.157, 237 112.271, 237 112.544 C 237 112.990, 244.899 109.298, 245.917 108.377 C 247.067 107.336, 244.064 108.319, 240.750 110.068 M 197.971 124.296 C 190.171 131.707, 185.991 136.376, 188.024 135.407 C 189.465 134.720, 205.796 117.955, 204.935 118.046 C 204.696 118.072, 201.562 120.884, 197.971 124.296 M 381 123.500 C 383.987 126.525, 386.657 129, 386.932 129 C 387.207 129, 384.987 126.525, 382 123.500 C 379.013 120.475, 376.343 118, 376.068 118 C 375.793 118, 378.013 120.475, 381 123.500 M 362 119.259 C 362 119.536, 363.534 120.933, 365.409 122.363 C 367.284 123.793, 368.733 124.409, 368.631 123.731 C 368.303 121.571, 366.894 119.948, 365.887 120.570 C 365.351 120.901, 364.257 120.628, 363.456 119.964 C 362.655 119.299, 362 118.982, 362 119.259 M 215.484 127.164 C 211.860 130.554, 208.422 134.266, 207.844 135.414 C 207.266 136.561, 208.204 135.835, 209.928 133.800 C 211.653 131.765, 215.404 128.052, 218.265 125.550 C 221.125 123.047, 223.152 121, 222.769 121 C 222.386 121, 219.108 123.774, 215.484 127.164 M 377.958 125.250 C 382.102 129.665, 383 130.459, 383 129.708 C 383 129.548, 380.863 127.410, 378.250 124.958 L 373.500 120.500 377.958 125.250 M 376.579 132.067 C 383.909 139.824, 391.346 149.791, 394.624 156.250 C 395.949 158.863, 397.462 161, 397.985 161 C 398.509 161, 398.678 160.325, 398.362 159.500 C 397.386 156.957, 398.851 157.843, 400.428 160.750 C 401.249 162.262, 401.938 163.038, 401.960 162.473 C 402.031 160.639, 398.893 156.948, 397.824 157.608 C 397.154 158.023, 397.024 157.409, 397.458 155.875 C 397.959 154.108, 397.873 153.875, 397.123 154.966 C 396.301 156.162, 395.920 155.920, 395.057 153.651 C 393.602 149.823, 393.731 149.282, 395.555 151.559 C 397.045 153.418, 397.064 153.404, 396.005 151.222 C 395.397 149.969, 394.512 149.184, 394.038 149.476 C 393.564 149.769, 391.456 147.644, 389.353 144.754 C 384.406 137.955, 377.366 130.380, 373.531 127.729 C 371.697 126.462, 372.900 128.174, 376.579 132.067 M 380 130.637 C 380 131.171, 381.688 133.158, 383.750 135.054 L 387.500 138.500 384 134.511 C 382.075 132.317, 380.387 130.330, 380.250 130.094 C 380.113 129.859, 380 130.103, 380 130.637 M 196.791 136.750 C 193.425 140.334, 186 151.048, 186 152.323 C 186 152.868, 188.313 149.981, 191.139 145.907 C 193.966 141.833, 197.194 137.488, 198.314 136.250 C 201.236 133.019, 199.876 133.466, 196.791 136.750 M 389 142 C 390.175 143.650, 391.361 145, 391.636 145 C 391.911 145, 391.175 143.650, 390 142 C 388.825 140.350, 387.639 139, 387.364 139 C 387.089 139, 387.825 140.350, 389 142 M 284.250 144.716 C 285.762 144.945, 288.238 144.945, 289.750 144.716 C 291.262 144.487, 290.025 144.300, 287 144.300 C 283.975 144.300, 282.738 144.487, 284.250 144.716 M 401.172 150.501 C 402.810 153.525, 404.349 156, 404.592 156 C 405.287 156, 400.145 146.208, 399.116 145.571 C 398.608 145.258, 399.533 147.476, 401.172 150.501 M 258.300 157.276 C 255.555 160.178, 252.777 163.666, 252.126 165.026 L 250.942 167.500 252.712 165 C 253.686 163.625, 256.689 160.137, 259.386 157.250 C 262.083 154.363, 264.065 152, 263.790 152 C 263.515 152, 261.045 154.374, 258.300 157.276 M 310.689 152.698 C 311.892 152.932, 313.078 153.883, 313.323 154.811 C 313.638 156.008, 313.802 155.844, 313.884 154.250 C 313.979 152.404, 313.506 152.024, 311.250 152.136 C 308.986 152.248, 308.887 152.348, 310.689 152.698 M 173.452 157.093 C 172.572 158.794, 172.030 160.363, 172.247 160.580 C 172.464 160.797, 173.390 159.406, 174.305 157.487 C 176.361 153.175, 175.649 152.845, 173.452 157.093 M 260.453 159.250 L 256.500 163.500 260.750 159.547 C 264.702 155.871, 265.460 155, 264.703 155 C 264.540 155, 262.627 156.912, 260.453 159.250 M 306.762 156.707 C 308.006 156.946, 309.806 156.937, 310.762 156.687 C 311.718 156.437, 310.700 156.241, 308.500 156.252 C 306.300 156.263, 305.518 156.468, 306.762 156.707 M 406.744 165.615 C 408.810 170.078, 410.795 173.565, 411.156 173.364 C 412.063 172.858, 410.965 169, 409.915 169 C 409.446 169, 409.350 168.251, 409.701 167.336 C 410.155 166.153, 409.971 165.900, 409.063 166.461 C 408.146 167.028, 407.945 166.722, 408.349 165.375 C 408.659 164.344, 408.273 162.375, 407.492 161 C 406.710 159.625, 406.055 159.149, 406.035 159.941 C 406.010 160.987, 405.587 160.850, 404.494 159.441 C 403.665 158.374, 404.677 161.152, 406.744 165.615 M 276.388 170.531 C 275.475 171.923, 274.911 173.244, 275.133 173.467 C 275.356 173.689, 276.296 172.550, 277.222 170.935 C 279.286 167.340, 278.673 167.043, 276.388 170.531 M 292.437 172.250 L 289.500 175.500 292.750 172.563 C 295.779 169.825, 296.460 169, 295.687 169 C 295.515 169, 294.052 170.463, 292.437 172.250 M 248.272 178 C 248.272 180.475, 248.467 181.488, 248.706 180.250 C 248.944 179.012, 248.944 176.988, 248.706 175.750 C 248.467 174.512, 248.272 175.525, 248.272 178 M 412 179.559 C 412 180.416, 412.402 180.869, 412.894 180.566 C 413.385 180.262, 413.810 181.023, 413.837 182.257 C 413.920 185.990, 415.172 190.988, 416.179 191.611 C 416.759 191.969, 416.853 190.702, 416.420 188.348 C 416.032 186.232, 415.325 184.349, 414.850 184.165 C 414.376 183.980, 414.244 183.414, 414.558 182.906 C 415.322 181.669, 414.106 178, 412.933 178 C 412.420 178, 412 178.702, 412 179.559 M 275.872 180.250 C 276.720 181.330, 278.442 181.943, 280.372 181.850 L 283.500 181.700 280.500 181.262 C 278.850 181.020, 276.825 180.300, 276 179.662 C 274.695 178.651, 274.678 178.727, 275.872 180.250 M 407.710 183 C 407.038 185.570, 407.961 189.142, 409.114 188.430 C 409.601 188.128, 410 187.207, 410 186.382 C 410 185.557, 409.532 185.171, 408.960 185.525 C 408.285 185.942, 408.148 185.259, 408.568 183.584 C 408.925 182.163, 408.996 181, 408.725 181 C 408.455 181, 407.998 181.900, 407.710 183 M 409.531 190.293 C 409.103 191.279, 409.034 192.367, 409.376 192.710 C 410.392 193.725, 411.211 192.299, 410.743 190.328 C 410.329 188.581, 410.275 188.580, 409.531 190.293 M 363.490 195.010 C 361.215 197.340, 359.518 200.083, 359.439 201.558 C 359.275 204.642, 361.249 203.158, 361.480 200.024 C 361.563 198.898, 363.152 196.407, 365.012 194.488 C 366.871 192.570, 368.170 191, 367.899 191 C 367.628 191, 365.644 192.804, 363.490 195.010 M 410 198.059 C 410 199.844, 410.417 200.861, 411 200.500 C 411.550 200.160, 412 198.784, 412 197.441 C 412 196.098, 411.550 195, 411 195 C 410.450 195, 410 196.377, 410 198.059 M 160.252 205.500 C 160.263 207.700, 160.468 208.482, 160.707 207.238 C 160.946 205.994, 160.937 204.194, 160.687 203.238 C 160.437 202.282, 160.241 203.300, 160.252 205.500 M 175.252 206.500 C 175.263 208.700, 175.468 209.482, 175.707 208.238 C 175.946 206.994, 175.937 205.194, 175.687 204.238 C 175.437 203.282, 175.241 204.300, 175.252 206.500 M 411.015 209.750 C 411.026 214.477, 411.321 216.050, 412 215 C 413.281 213.017, 413.281 203, 412 203 C 411.431 203, 411.007 205.906, 411.015 209.750 M 350.882 204.750 C 350.816 205.162, 350.835 205.893, 350.922 206.373 C 351.010 206.853, 350.365 206.970, 349.489 206.634 C 348.523 206.263, 348.149 206.433, 348.540 207.064 C 349.449 208.536, 351.278 207.711, 351.574 205.696 C 351.711 204.763, 351.638 204, 351.412 204 C 351.185 204, 350.947 204.338, 350.882 204.750 M 260.232 213 C 260.232 214.925, 260.438 215.713, 260.689 214.750 C 260.941 213.787, 260.941 212.213, 260.689 211.250 C 260.438 210.287, 260.232 211.075, 260.232 213 M 256.252 214.500 C 256.263 216.700, 256.468 217.482, 256.707 216.238 C 256.946 214.994, 256.937 213.194, 256.687 212.238 C 256.437 211.282, 256.241 212.300, 256.252 214.500 M 366.250 215.689 C 367.212 215.941, 368.788 215.941, 369.750 215.689 C 370.712 215.438, 369.925 215.232, 368 215.232 C 366.075 215.232, 365.288 215.438, 366.250 215.689 M 413.206 220.500 C 413.189 222.700, 413.526 226.750, 413.954 229.500 L 414.733 234.500 414.748 228.500 C 414.756 225.200, 414.420 221.150, 414 219.500 C 413.272 216.641, 413.235 216.688, 413.206 220.500 M 264.750 218.706 C 265.988 218.944, 268.012 218.944, 269.250 218.706 C 270.488 218.467, 269.475 218.272, 267 218.272 C 264.525 218.272, 263.512 218.467, 264.750 218.706 M 366.649 219.674 C 367.281 220.128, 368.028 221.625, 368.308 223 C 368.747 225.153, 368.795 225.094, 368.659 222.577 C 368.569 220.928, 367.846 219.478, 367 219.251 C 365.997 218.981, 365.881 219.122, 366.649 219.674 M 354.250 221.989 C 352.462 223.079, 351 224.257, 351 224.608 C 351 224.958, 351.593 224.752, 352.319 224.150 C 353.044 223.548, 355.182 222.386, 357.069 221.567 C 358.956 220.748, 359.825 220.062, 359 220.043 C 358.175 220.023, 356.038 220.899, 354.250 221.989 M 321.306 223.573 L 318.500 226.146 321.750 223.885 C 323.538 222.641, 325 221.484, 325 221.312 C 325 220.523, 323.894 221.200, 321.306 223.573 M 175.252 225.500 C 175.263 227.700, 175.468 228.482, 175.707 227.238 C 175.946 225.994, 175.937 224.194, 175.687 223.238 C 175.437 222.282, 175.241 223.300, 175.252 225.500 M 302 224.500 C 300.708 225.875, 300.010 227, 300.448 227 C 300.886 227, 300.695 227.663, 300.022 228.473 C 298.986 229.722, 299.272 229.711, 301.900 228.400 C 303.605 227.550, 305 226.346, 305 225.727 C 305 224.932, 304.647 224.953, 303.800 225.800 C 301.441 228.159, 300.698 226.950, 303 224.500 C 304.292 223.125, 305.124 222, 304.849 222 C 304.574 222, 303.292 223.125, 302 224.500 M 372.249 225.250 C 371.174 228.188, 371.201 228.314, 372.530 226.559 C 373.802 224.879, 374.553 222, 373.719 222 C 373.565 222, 372.903 223.463, 372.249 225.250 M 274.711 225.004 C 275 226.108, 274.620 227.796, 273.868 228.755 C 272.629 230.335, 272.665 230.371, 274.250 229.128 C 276.115 227.665, 276.596 224.487, 275.093 223.558 C 274.595 223.249, 274.423 223.900, 274.711 225.004 M 278.136 224.936 C 278.061 226.275, 277 228.525, 275.778 229.936 L 273.556 232.500 276.366 229.889 C 278.366 228.031, 279.045 226.590, 278.724 224.889 L 278.272 222.500 278.136 224.936 M 251.943 229.654 C 250.536 232.528, 249.755 234.651, 250.207 234.372 C 251.365 233.657, 255.181 225.999, 254.808 225.140 C 254.639 224.749, 253.349 226.780, 251.943 229.654 M 343.500 227 C 342.505 228.100, 342.040 229, 342.467 229 C 342.895 229, 342.718 229.635, 342.074 230.411 C 341.172 231.498, 341.201 231.994, 342.201 232.571 C 342.916 232.983, 343.169 232.955, 342.766 232.509 C 342.362 232.063, 342.812 231.105, 343.766 230.381 C 345.060 229.398, 345.143 229.056, 344.095 229.032 C 343.018 229.007, 343.112 228.534, 344.500 227 C 345.495 225.900, 346.085 225, 345.810 225 C 345.535 225, 344.495 225.900, 343.500 227 M 161.118 231.583 C 161.183 234.287, 161.587 237.850, 162.015 239.500 C 162.471 241.258, 162.571 239.394, 162.258 235 C 161.644 226.397, 160.943 224.296, 161.118 231.583 M 284.543 227.931 C 283.860 229.036, 285.437 230.230, 286.361 229.306 C 287.311 228.355, 287.134 227, 286.059 227 C 285.541 227, 284.859 227.419, 284.543 227.931 M 296.916 228.601 C 296.186 229.481, 295.492 230.856, 295.374 231.657 C 295.204 232.815, 295.455 232.867, 296.604 231.913 C 297.399 231.254, 297.816 230.483, 297.533 230.200 C 297.249 229.916, 297.519 229.080, 298.131 228.342 C 298.744 227.604, 299.020 227, 298.745 227 C 298.470 227, 297.647 227.720, 296.916 228.601 M 300.615 231.500 C 299.727 232.875, 298.272 235.238, 297.381 236.750 L 295.763 239.500 297.774 237.066 C 300.151 234.191, 303.302 229, 302.672 229 C 302.429 229, 301.503 230.125, 300.615 231.500 M 309.500 231.942 C 307.300 233.516, 305.194 234.615, 304.819 234.385 C 304.445 234.155, 303.849 234.436, 303.495 235.008 C 303.141 235.581, 303.447 235.926, 304.176 235.775 C 305.713 235.456, 314 230.122, 314 229.452 C 314 228.759, 313.784 228.879, 309.500 231.942 M 363.437 232.250 L 360.500 235.500 363.750 232.563 C 366.779 229.825, 367.460 229, 366.687 229 C 366.515 229, 365.052 230.463, 363.437 232.250 M 365.500 233.689 C 362.750 236.219, 361.850 237.367, 363.500 236.242 C 366.310 234.325, 371.859 228.946, 370.924 229.045 C 370.691 229.069, 368.250 231.159, 365.500 233.689 M 224.750 232.068 C 222.688 233.157, 221 234.271, 221 234.544 C 221 234.990, 228.899 231.298, 229.917 230.377 C 231.067 229.336, 228.064 230.319, 224.750 232.068 M 291.590 232.901 C 290.555 234.044, 290.267 235.047, 290.866 235.417 C 291.894 236.053, 293.301 234.443, 293.633 232.250 C 293.887 230.578, 293.613 230.665, 291.590 232.901 M 348.437 234.250 L 345.500 237.500 348.690 234.620 C 350.673 232.831, 352.491 231.974, 353.492 232.359 C 354.429 232.718, 354.848 232.563, 354.493 231.989 C 353.393 230.209, 351.424 230.945, 348.437 234.250 M 412.215 234 C 412.206 235.925, 412.560 238.625, 413 240 C 413.648 242.022, 413.809 242.118, 413.843 240.500 C 413.866 239.400, 413.512 236.700, 413.057 234.500 L 412.230 230.500 412.215 234 M 335.598 235.750 C 333.425 237.856, 331.996 238.728, 332.338 237.738 C 332.905 236.096, 332.745 236.081, 329.973 237.514 C 328.338 238.359, 327 239.281, 327 239.561 C 327 239.841, 327.873 239.603, 328.939 239.032 C 330.229 238.342, 331.086 238.330, 331.498 238.997 C 332.062 239.909, 331.470 240.345, 329.907 240.171 C 329.581 240.134, 327.331 242.218, 324.907 244.801 C 320.542 249.453, 320.539 249.462, 324.563 245.729 C 326.798 243.656, 328.849 242.182, 329.122 242.455 C 329.394 242.727, 332.050 240.487, 335.024 237.475 C 341.112 231.311, 341.557 229.974, 335.598 235.750 M 281.232 235.750 C 278.643 239.489, 277.802 241, 278.308 241 C 278.542 241, 279.925 239.200, 281.381 237 C 284.340 232.529, 284.211 231.448, 281.232 235.750 M 285.279 236.358 C 284.931 236.921, 285.203 237.568, 285.884 237.795 C 286.777 238.092, 286.619 238.806, 285.318 240.354 C 283.660 242.326, 283.723 242.317, 286.090 240.232 C 287.507 238.985, 288.667 237.373, 288.667 236.649 C 288.667 235.095, 286.191 234.883, 285.279 236.358 M 208.523 240.977 C 205.827 243.714, 203.818 246.097, 204.060 246.271 C 204.302 246.445, 206.705 244.206, 209.401 241.294 C 215.597 234.601, 215.011 234.389, 208.523 240.977 M 244.946 239.750 L 241.500 243.500 245.250 240.054 C 248.740 236.846, 249.460 236, 248.696 236 C 248.529 236, 246.842 237.688, 244.946 239.750 M 314 238.441 C 314 239.784, 314.369 241.110, 314.819 241.388 C 315.270 241.667, 315.443 240.568, 315.206 238.947 C 314.681 235.373, 314 235.087, 314 238.441 M 247.453 241.250 L 243.500 245.500 247.750 241.547 C 250.088 239.373, 252 237.460, 252 237.297 C 252 236.540, 251.129 237.298, 247.453 241.250 M 411.199 241.500 C 411.199 242.600, 411.560 244.625, 412 246 C 412.634 247.980, 412.801 248.084, 412.801 246.500 C 412.801 245.400, 412.440 243.375, 412 242 C 411.366 240.020, 411.199 239.916, 411.199 241.500 M 277.015 242.781 C 276.990 244.920, 280.042 245.392, 281.828 243.525 C 283.409 241.872, 283.376 241.851, 281.219 243.138 C 279.265 244.305, 278.802 244.285, 277.985 243 C 277.319 241.954, 277.026 241.888, 277.015 242.781 M 325.437 247.250 L 322.500 250.500 325.750 247.563 C 328.779 244.825, 329.460 244, 328.687 244 C 328.515 244, 327.052 245.463, 325.437 247.250 M 332 250 C 330.878 252.200, 330.184 254, 330.459 254 C 330.734 254, 331.878 252.200, 333 250 C 334.122 247.800, 334.816 246, 334.541 246 C 334.266 246, 333.122 247.800, 332 250 M 334.500 253 C 333.647 254.650, 333.174 256, 333.449 256 C 333.724 256, 334.647 254.650, 335.500 253 C 336.353 251.350, 336.826 250, 336.551 250 C 336.276 250, 335.353 251.350, 334.500 253 M 320 254 C 318.825 255.650, 318.089 257, 318.364 257 C 318.639 257, 319.825 255.650, 321 254 C 322.175 252.350, 322.911 251, 322.636 251 C 322.361 251, 321.175 252.350, 320 254 M 315.822 255.750 C 313.446 258.544, 309.819 264, 310.338 264 C 310.599 264, 312.429 261.750, 314.405 259 C 317.962 254.048, 318.692 252.375, 315.822 255.750 M 209.250 257.716 C 210.762 257.945, 213.238 257.945, 214.750 257.716 C 216.262 257.487, 215.025 257.300, 212 257.300 C 208.975 257.300, 207.738 257.487, 209.250 257.716 M 406.111 261.111 C 405.495 262.878, 405.166 264.499, 405.380 264.713 C 405.594 264.927, 406.273 263.656, 406.889 261.889 C 407.505 260.122, 407.834 258.501, 407.620 258.287 C 407.406 258.073, 406.727 259.344, 406.111 261.111 M 168.071 260.500 C 168.071 261.050, 168.714 262.625, 169.500 264 C 170.286 265.375, 170.929 266.050, 170.929 265.500 C 170.929 264.950, 170.286 263.375, 169.500 262 C 168.714 260.625, 168.071 259.950, 168.071 260.500 M 308.452 272.093 C 307.572 273.794, 307.030 275.363, 307.247 275.580 C 307.464 275.797, 308.390 274.406, 309.305 272.487 C 311.361 268.175, 310.649 267.845, 308.452 272.093 M 189.500 274 C 190.353 275.650, 191.276 277, 191.551 277 C 191.826 277, 191.353 275.650, 190.500 274 C 189.647 272.350, 188.724 271, 188.449 271 C 188.174 271, 188.647 272.350, 189.500 274 M 304.162 274.543 C 303.523 275.946, 303.018 277.635, 303.039 278.297 C 303.061 278.959, 303.743 277.969, 304.554 276.099 C 306.263 272.161, 305.902 270.726, 304.162 274.543 M 314.957 277.250 C 313.100 279.587, 312.370 280.865, 313.337 280.089 C 315.157 278.627, 319.442 273, 318.735 273 C 318.515 273, 316.815 274.913, 314.957 277.250 M 319.437 276.671 C 317.897 278.690, 317.148 280.027, 317.772 279.641 C 319.052 278.850, 323.381 273, 322.687 273 C 322.440 273, 320.977 274.652, 319.437 276.671 M 396.500 281 C 395.647 282.650, 395.174 284, 395.449 284 C 395.724 284, 396.647 282.650, 397.500 281 C 398.353 279.350, 398.826 278, 398.551 278 C 398.276 278, 397.353 279.350, 396.500 281 M 180.097 284.440 C 181.252 286.398, 182.390 288, 182.624 288 C 183.335 288, 180.089 282.173, 179.005 281.503 C 178.451 281.160, 178.942 282.482, 180.097 284.440 M 312.172 284.577 C 309.792 286.460, 308.255 288, 308.756 288 C 309.257 288, 311.429 286.444, 313.583 284.542 C 318.593 280.118, 317.785 280.138, 312.172 284.577 M 399.736 284.256 L 397.971 287.500 399.986 285.139 C 401.700 283.130, 402.616 280.984, 401.750 281.006 C 401.613 281.010, 400.706 282.472, 399.736 284.256 M 185 292 C 186.175 293.650, 187.361 295, 187.636 295 C 187.911 295, 187.175 293.650, 186 292 C 184.825 290.350, 183.639 289, 183.364 289 C 183.089 289, 183.825 290.350, 185 292 M 207.500 298 C 210.209 300.750, 212.650 303, 212.925 303 C 213.200 303, 211.209 300.750, 208.500 298 C 205.791 295.250, 203.350 293, 203.075 293 C 202.800 293, 204.791 295.250, 207.500 298 M 384.048 298.451 C 382.208 300.348, 380.381 301.811, 379.987 301.701 C 378.865 301.387, 368.152 311.819, 368.865 312.531 C 369.214 312.881, 369.050 313.020, 368.500 312.841 C 366.911 312.324, 362.684 315.687, 363.944 316.466 C 364.544 316.836, 366.715 315.792, 368.768 314.144 C 372.955 310.782, 388.746 295, 387.923 295 C 387.631 295, 385.887 296.553, 384.048 298.451 M 188 296.313 C 188 296.485, 189.463 297.948, 191.250 299.563 L 194.500 302.500 191.563 299.250 C 188.825 296.221, 188 295.540, 188 296.313 M 200.500 310 C 204.320 313.850, 207.671 317, 207.946 317 C 208.221 317, 205.320 313.850, 201.500 310 C 197.680 306.150, 194.329 303, 194.054 303 C 193.779 303, 196.680 306.150, 200.500 310 M 382.946 306.750 L 379.500 310.500 383.250 307.054 C 385.313 305.158, 387 303.471, 387 303.304 C 387 302.540, 386.154 303.260, 382.946 306.750 M 365 309.121 C 357.508 315.452, 356.107 316.510, 354.826 316.805 C 354.097 316.973, 352.938 317.846, 352.250 318.746 C 351.563 319.646, 351 319.985, 351 319.500 C 351 319.015, 350.292 319.491, 349.426 320.559 C 348.560 321.626, 348.143 321.927, 348.499 321.228 C 348.882 320.473, 347.293 320.855, 344.595 322.166 C 342.092 323.382, 340.220 324.554, 340.436 324.770 C 340.652 324.985, 341.731 324.679, 342.834 324.089 C 344.295 323.307, 344.943 323.328, 345.223 324.168 C 345.502 325.007, 346.128 325.028, 347.527 324.245 C 348.844 323.508, 350.045 323.489, 351.345 324.185 C 352.648 324.882, 353.040 324.874, 352.599 324.160 C 352.239 323.578, 352.737 323.177, 353.728 323.249 C 355.935 323.407, 364.155 318.059, 363.452 316.922 C 362.734 315.761, 360.014 316.942, 360.282 318.298 C 360.402 318.908, 359.600 319.428, 358.500 319.453 C 357.368 319.480, 356.622 320.083, 356.781 320.844 C 356.936 321.583, 356.486 321.981, 355.781 321.729 C 355.077 321.477, 353.712 321.675, 352.750 322.170 C 348.798 324.203, 351.393 321.904, 356.750 318.628 C 364.956 313.608, 372.836 306.488, 370.388 306.305 C 369.349 306.227, 366.925 307.494, 365 309.121 M 221 309.313 C 221 309.560, 222.652 311.023, 224.671 312.563 C 226.690 314.103, 228.027 314.852, 227.641 314.228 C 226.850 312.948, 221 308.619, 221 309.313 M 372.946 316.750 L 369.500 320.500 373.250 317.054 C 376.740 313.846, 377.460 313, 376.696 313 C 376.529 313, 374.842 314.688, 372.946 316.750 M 229.761 316.212 C 230.940 317.632, 239 322.432, 239 321.713 C 239 321.485, 236.668 319.849, 233.818 318.078 C 230.968 316.306, 229.142 315.466, 229.761 316.212 M 360.718 325.420 C 354.816 329.506, 353.411 330.938, 357.765 328.431 C 361.124 326.497, 366.891 322.057, 366 322.091 C 365.725 322.102, 363.348 323.600, 360.718 325.420 M 341.798 326.250 C 341.058 326.938, 339.788 327.656, 338.976 327.847 C 338.164 328.038, 333.522 329.501, 328.660 331.097 C 323.798 332.694, 319.185 334, 318.410 334 C 317.634 334, 317 334.450, 317 335 C 317 336.434, 318.037 336.282, 326.467 333.604 C 330.616 332.287, 334.219 331.545, 334.473 331.957 C 334.969 332.759, 320.420 337.469, 313 338.908 C 309.408 339.605, 309.105 339.802, 311.500 339.885 C 316.968 340.074, 337.445 333.529, 336.445 331.911 C 336.143 331.423, 336.594 331.291, 337.448 331.618 C 338.302 331.946, 339 331.730, 339 331.138 C 339 330.546, 339.748 330.350, 340.664 330.701 C 341.872 331.165, 342.104 330.977, 341.510 330.015 C 340.974 329.150, 341.078 328.930, 341.809 329.382 C 342.424 329.762, 343.809 329.191, 344.886 328.114 C 346.541 326.459, 346.611 326.065, 345.341 325.577 C 343.344 324.811, 343.347 324.811, 341.798 326.250 M 333 327 C 330.940 327.660, 330.852 327.816, 332.500 327.885 C 333.600 327.931, 335.175 327.533, 336 327 C 337.752 325.868, 336.536 325.868, 333 327 M 226 329.459 C 226 329.734, 227.800 330.878, 230 332 C 232.200 333.122, 234 333.816, 234 333.541 C 234 333.266, 232.200 332.122, 230 331 C 227.800 329.878, 226 329.184, 226 329.459 M 273.750 333.706 C 274.988 333.944, 277.012 333.944, 278.250 333.706 C 279.488 333.467, 278.475 333.272, 276 333.272 C 273.525 333.272, 272.512 333.467, 273.750 333.706 M 238 336 C 239.925 337.054, 241.950 337.916, 242.500 337.916 C 243.050 337.916, 241.925 337.054, 240 336 C 238.075 334.946, 236.050 334.084, 235.500 334.084 C 234.950 334.084, 236.075 334.946, 238 336 M 300.762 334.707 C 302.006 334.946, 303.806 334.937, 304.762 334.687 C 305.718 334.437, 304.700 334.241, 302.500 334.252 C 300.300 334.263, 299.518 334.468, 300.762 334.707 M 311.500 336 C 310.400 336.473, 307.475 336.923, 305 337 C 302.525 337.077, 299.600 337.566, 298.500 338.086 C 297.132 338.732, 298.643 338.858, 303.279 338.485 C 312.036 337.779, 316 336.966, 316 335.875 C 316 334.803, 314.167 334.854, 311.500 336 M 284.750 338.723 C 286.538 338.945, 289.462 338.945, 291.250 338.723 C 293.038 338.502, 291.575 338.320, 288 338.320 C 284.425 338.320, 282.962 338.502, 284.750 338.723 M 284.789 346.741 C 288.248 346.937, 293.648 346.936, 296.789 346.738 C 299.930 346.540, 297.100 346.380, 290.500 346.382 C 283.900 346.384, 281.330 346.546, 284.789 346.741" stroke="none" fill="#7be17d" fill-rule="evenodd"/><path d="M 268.500 88.615 C 242.326 93.310, 218.431 105.831, 198.153 125.476 C 179.728 143.325, 168.776 163.299, 163.467 188.733 C 161.825 196.594, 159.680 220.674, 160.503 222.004 C 160.749 222.402, 161.428 226.951, 162.013 232.114 C 163.243 242.983, 165.132 250.860, 168.697 260 C 171.584 267.401, 177.267 278.990, 179.916 282.878 C 180.898 284.320, 183.457 288.177, 185.601 291.448 C 191.022 299.718, 210.086 318.708, 218.500 324.220 C 228.363 330.680, 242.067 337.333, 251.829 340.400 C 275.405 347.808, 304.449 347.976, 328.497 340.844 C 344.949 335.964, 366.212 323.500, 377.919 311.875 C 384.305 305.532, 398.509 287.315, 400.042 283.500 C 405.729 269.348, 407.249 265.170, 409.346 257.934 C 410.694 253.284, 412.068 246.784, 412.401 243.490 C 412.915 238.394, 412.703 238.884, 410.983 246.779 C 409.871 251.882, 407.827 259.082, 406.440 262.779 C 403.344 271.035, 395.167 285.615, 389.482 293.014 C 383.377 300.961, 366.070 317.241, 364.405 316.602 C 363.646 316.310, 363.131 316.618, 363.262 317.286 C 363.393 317.954, 362.744 318.506, 361.821 318.513 C 360.897 318.520, 359.772 318.929, 359.321 319.423 C 358.852 319.936, 359.036 320.012, 359.750 319.601 C 362.169 318.209, 360.967 319.792, 358.250 321.576 C 356.738 322.569, 354.703 323.323, 353.728 323.252 C 352.754 323.180, 352.215 323.539, 352.530 324.049 C 352.851 324.567, 352.346 324.686, 351.388 324.319 C 350.099 323.824, 349.877 324.013, 350.496 325.080 C 350.950 325.861, 350.966 326.180, 350.534 325.790 C 349.523 324.879, 344 327.705, 344 329.133 C 344 329.727, 343.302 329.946, 342.448 329.618 C 341.434 329.229, 341.144 329.425, 341.612 330.181 C 342.090 330.955, 341.775 331.128, 340.664 330.701 C 339.748 330.350, 339 330.546, 339 331.138 C 339 331.730, 338.302 331.946, 337.448 331.618 C 336.594 331.291, 336.143 331.423, 336.445 331.911 C 337.445 333.529, 316.968 340.074, 311.500 339.885 C 309.105 339.802, 309.408 339.605, 313 338.908 C 320.701 337.415, 334.961 332.745, 334.432 331.890 C 334.156 331.443, 332.708 331.545, 331.215 332.117 C 320.284 336.306, 310.032 338.166, 296 338.506 L 281.500 338.857 294.715 337.943 C 304.176 337.288, 311.134 336.145, 319.215 333.917 C 331.599 330.502, 345 325.314, 345 323.935 C 345 323.452, 342.413 324.122, 339.250 325.424 C 336.087 326.726, 330.565 328.701, 326.978 329.814 C 292.136 340.620, 253.541 334.155, 225 312.732 C 200.023 293.985, 185.967 273.579, 178.431 245.127 C 175.277 233.220, 174.111 212.507, 175.904 200.246 C 182.190 157.256, 213.171 119.128, 253.186 105.138 C 262.899 101.742, 276.009 99, 282.529 99 C 284.898 99, 287.661 98.683, 288.668 98.296 C 290.273 97.679, 290.190 97.512, 288 96.948 C 286.485 96.558, 288.061 96.287, 292 96.259 C 295.575 96.234, 300.750 96.836, 303.500 97.596 C 306.250 98.357, 311.650 99.175, 315.500 99.415 C 319.350 99.654, 323.850 100.375, 325.500 101.017 C 327.150 101.659, 329.593 102.391, 330.930 102.644 C 334.261 103.275, 335.152 103.946, 334.360 105.227 C 333.921 105.937, 334.436 106.119, 335.845 105.751 C 337.032 105.440, 337.751 105.595, 337.442 106.093 C 336.902 106.967, 338.249 107.389, 340.650 107.098 C 341.757 106.963, 351.394 111.878, 355.473 114.656 C 358.241 116.542, 359.503 116.328, 357.872 114.250 C 356.630 112.666, 356.665 112.630, 358.239 113.863 C 359.195 114.613, 359.753 115.591, 359.477 116.037 C 358.818 117.103, 364.724 121.289, 365.880 120.574 C 366.371 120.271, 367.387 120.805, 368.137 121.761 C 369.388 123.357, 369.335 123.386, 367.500 122.120 C 365.283 120.589, 369.180 124.185, 376.996 130.881 C 388.060 140.360, 397.891 156.150, 404.438 174.961 C 407.815 184.661, 410.145 189.769, 408.563 184 C 404.185 168.045, 397.844 154.292, 389.387 142.410 C 379.549 128.587, 362.471 113.688, 347.387 105.769 C 332.027 97.705, 309.056 92.064, 291.397 92.018 C 281.444 91.993, 271.084 93.152, 273.543 94.017 C 274.892 94.491, 273.326 95.080, 268.500 95.914 C 248.539 99.362, 228.960 108.990, 210.610 124.382 C 203.121 130.663, 202 131.479, 202 130.643 C 202 129.774, 219.965 114.762, 224.250 112.050 C 226.863 110.397, 229 108.536, 229 107.915 C 229 107.294, 229.698 107.054, 230.552 107.382 C 231.406 107.709, 231.870 107.598, 231.583 107.135 C 230.882 106, 235.867 103.799, 237.229 104.642 C 237.851 105.026, 238.022 104.844, 237.631 104.212 C 236.383 102.193, 253.957 95.405, 268.204 92.402 C 279.625 89.995, 302.333 90.028, 314.500 92.469 C 319.450 93.462, 324.379 94.234, 325.454 94.184 C 326.529 94.134, 327.915 94.515, 328.536 95.030 C 329.156 95.544, 333.677 97.583, 338.582 99.560 C 351.536 104.782, 359.522 109.266, 367.957 116.055 C 385.589 130.246, 393.368 139.373, 403.706 158 C 410.203 169.706, 410.609 168.900, 404.409 156.605 C 397.517 142.936, 391.491 134.471, 381.513 124.442 C 369.612 112.480, 356.123 103.226, 339.321 95.495 C 333.926 93.013, 319.664 89.199, 311.566 88.072 C 300.949 86.596, 278.154 86.883, 268.500 88.615 M 279.068 93.937 C 278.173 94.503, 280.050 94.634, 284.068 94.286 C 287.605 93.980, 290.688 93.565, 290.917 93.365 C 291.852 92.546, 280.391 93.100, 279.068 93.937 M 196.791 136.750 C 193.425 140.334, 186 151.048, 186 152.323 C 186 152.868, 188.313 149.981, 191.139 145.907 C 193.966 141.833, 197.194 137.488, 198.314 136.250 C 201.236 133.019, 199.876 133.466, 196.791 136.750 M 277.678 146.019 C 268.179 148.869, 258.557 156.365, 252.699 165.477 C 249.731 170.095, 249.502 171.070, 249.527 178.977 C 249.549 185.787, 250.184 189.410, 252.686 197 C 256.163 207.549, 257.518 214.793, 256.572 217.772 C 256.109 219.232, 254.142 220.181, 248.983 221.435 C 240.380 223.526, 226.582 228.883, 220.267 232.584 C 214.468 235.982, 206.323 243.476, 204.413 247.169 C 202.417 251.028, 202.637 254.735, 204.934 255.965 C 207.706 257.448, 216.697 257.222, 222.280 255.528 C 238.970 250.464, 254.539 236.772, 258.416 223.750 C 258.844 222.313, 260.117 222, 265.534 222 C 269.163 222, 273.002 222.466, 274.066 223.035 C 276.643 224.414, 276.518 227.523, 273.810 229.420 C 272.606 230.264, 271.933 231.266, 272.314 231.648 C 273.625 232.959, 278 227.729, 278 224.851 C 278 221.054, 273.856 219, 266.193 219 L 260.286 219 259.718 211.250 C 259.405 206.988, 257.769 198.775, 256.081 193 C 254.295 186.890, 253.014 180.200, 253.016 177 C 253.023 166.295, 260.052 156.664, 271.880 151.151 C 279.420 147.637, 291.322 147.365, 295.673 150.606 C 300.190 153.971, 299.766 155.503, 293.528 158.358 C 285.502 162.033, 279.618 166.556, 277.149 170.949 C 273.582 177.296, 274.721 181, 280.240 181 C 288.848 181, 300.904 168.719, 300.978 159.875 C 300.996 157.742, 301.586 157.133, 304.125 156.625 C 305.844 156.281, 308.544 156, 310.125 156 C 312.117 156, 313 155.499, 313 154.368 C 313 153.046, 312.288 152.847, 309.250 153.316 C 307.188 153.635, 304.587 154.171, 303.472 154.506 C 301.842 154.997, 301.207 154.463, 300.239 151.784 C 298.504 146.987, 294.496 144.982, 286.846 145.086 C 283.356 145.133, 279.230 145.553, 277.678 146.019 M 292.243 161.036 C 284.686 164.813, 279 170.823, 279 175.034 C 279 178.871, 281.167 179.768, 285.474 177.714 C 292.599 174.316, 297.677 168.188, 299.531 160.750 C 300.398 157.275, 299.717 157.302, 292.243 161.036 M 364.946 194.609 C 363.051 196.594, 358.580 200.194, 355.011 202.609 C 351.442 205.024, 349.004 207, 349.595 207 C 350.185 207, 353.218 205.214, 356.334 203.031 C 359.450 200.848, 362 199.316, 362 199.625 C 362 199.935, 358.772 205.679, 354.827 212.389 C 346.928 225.825, 344.121 228.573, 332.206 234.533 C 319.701 240.789, 316.088 239.263, 322.465 230.419 C 330.118 219.803, 328.063 219.257, 315.500 228.568 C 310 232.644, 304.947 235.984, 304.270 235.990 C 303.594 235.995, 305.281 232.567, 308.020 228.372 C 310.759 224.176, 313 220.378, 313 219.931 C 313 217.254, 309.802 219.066, 298.544 228.122 C 291.607 233.701, 285.679 238.013, 285.370 237.703 C 285.060 237.394, 286.199 235.118, 287.900 232.646 C 296.233 220.534, 292.687 219.055, 280.500 229.559 C 277.284 232.331, 278.720 231.905, 283.308 228.727 C 284.852 227.657, 286.357 227.024, 286.652 227.319 C 286.948 227.615, 285.122 231.053, 282.595 234.959 C 275.231 246.342, 276.769 247.029, 288.406 237.553 C 298.048 229.701, 305 224.657, 305 225.513 C 305 225.863, 303.052 229.161, 300.672 232.840 C 293.487 243.947, 296.276 244.268, 310.533 233.976 C 315.086 230.689, 319.085 228, 319.420 228 C 319.755 228, 318.863 229.761, 317.439 231.912 C 315.793 234.401, 314.968 236.858, 315.175 238.662 C 315.469 241.230, 315.850 241.490, 319.178 241.392 C 321.201 241.333, 325.182 240.069, 328.024 238.582 C 333.883 235.519, 333.672 236.335, 326.707 243.680 C 321.555 249.113, 311.864 261.987, 308.343 268.073 C 305.465 273.049, 302 282.589, 302 285.538 C 302 287.578, 302.488 288, 304.850 288 C 311.815 288, 320.578 277.456, 336.082 250.422 C 353.657 219.775, 353.579 219.863, 363.446 219.623 L 368.500 219.500 368.378 223.340 C 368.311 225.452, 367.378 228.377, 366.306 229.840 C 363.539 233.615, 355.245 239, 352.200 239 L 349.626 239 352.472 236.030 C 355 233.390, 355.123 232.984, 353.569 232.388 C 351.191 231.476, 345.658 236.945, 346.566 239.311 C 347.431 241.565, 352.372 241.476, 357.500 239.113 C 367.335 234.581, 375.776 223.186, 373.059 218.110 C 371.567 215.322, 365.864 215.294, 358.895 218.041 L 353.716 220.083 355.355 217.582 C 359.930 210.599, 370 193.088, 370 192.114 C 370 190.156, 368.483 190.905, 364.946 194.609 M 241.500 225.896 C 222.311 231.686, 210.121 239.506, 207.597 247.645 C 205.898 253.124, 215.429 254.750, 226.779 250.917 C 238.353 247.009, 248.624 238.660, 253.375 229.300 C 256.999 222.161, 255.397 221.702, 241.500 225.896 M 413.310 231.500 C 413.315 234.800, 413.502 236.029, 413.725 234.232 C 413.947 232.435, 413.943 229.735, 413.715 228.232 C 413.486 226.729, 413.304 228.200, 413.310 231.500 M 333.427 238.496 C 316.041 256.196, 299.544 285, 306.792 285 C 311.054 285, 321.313 271.046, 333.995 248 C 337.476 241.675, 341.381 234.813, 342.674 232.750 C 346.654 226.402, 343.197 228.550, 333.427 238.496" stroke="none" fill="#1acd1b" fill-rule="evenodd"/></svg>